<svg xmlns="http://www.w3.org/2000/svg" enable-background="new 0 0 512 512" viewBox="0 0 512 512" id="content-writing"><path d="M181.337 97.836h146.662c2.69 0 4.872-2.181 4.872-4.872 0-2.691-2.181-4.872-4.872-4.872H181.337c-2.69 0-4.872 2.181-4.872 4.872C176.466 95.656 178.647 97.836 181.337 97.836zM70.504 179.354h257.496c2.69 0 4.872-2.181 4.872-4.872s-2.181-4.872-4.872-4.872H70.504c-2.69 0-4.872 2.181-4.872 4.872S67.813 179.354 70.504 179.354z"></path><path d="M496.664,100.354l-49.787-28.742c-8.36-4.833-19.096-1.959-23.919,6.411c-3.693,6.382-27.388,47.429-31.022,53.733V42.051c0-19.564-15.92-35.475-35.475-35.475h-226.03c-6.557,0-12.724,2.553-17.362,7.19l-99.302,99.302c-4.638,4.638-7.19,10.805-7.19,17.372v339.508c0,19.564,15.91,35.475,35.475,35.475h314.41c19.554,0,35.475-15.911,35.475-35.475V316.777c16.222-28.109,93.436-161.843,111.14-192.504C507.908,115.894,505.043,105.196,496.664,100.354z M408.937,121.779l27.407,15.823L318.804,341.194c-8.262-2.446-12.042,2.036-18.142-2.27c-4.589-3.235-4.316-7.57-7.736-16.193L408.937,121.779z M382.193,469.949c0,14.186-11.546,25.732-25.732,25.732H42.051c-14.196,0-25.732-11.546-25.732-25.732c0.146-361.508-0.341-339.606,0.38-342.792h85.895c13.543,0,24.553-11.019,24.553-24.562V16.7c3.205-0.731-9.987-0.234,229.314-0.38c14.186,0,25.732,11.546,25.732,25.732v106.579l-59.18,102.498H70.501c-2.689,0-4.872,2.182-4.872,4.872c0,2.689,2.182,4.872,4.872,4.872h246.89l-34.013,58.907c-0.292,0.516-0.516,1.12-0.604,1.754l-1.569,11.117H70.501c-2.689,0-4.872,2.173-4.872,4.872c0,2.689,2.182,4.872,4.872,4.872h209.331l-8.389,59.335c-0.653,4.589,0.507,8.973,3.108,12.432h-38.388c-2.699,0-4.872,2.182-4.872,4.872c0,2.689,2.173,4.872,4.872,4.872h91.838c2.689,0,4.872-2.183,4.872-4.872c0-2.689-2.182-4.872-4.872-4.872h-25.498l59.774-46.728c0.448-0.341,0.877-0.809,1.218-1.403l18.697-32.376V469.949z M356.169,359.238l-11.361,2.192c-5.251,1.033-10.503-1.997-12.228-7.064c-0.955-2.816-2.913-5.982-5.339-8.311l117.541-203.582l27.398,15.823L356.169,359.238z"></path></svg>