<svg xmlns="http://www.w3.org/2000/svg" width="32" height="32" id="browser"><path fill="#373449" d="M13.967 1023.365c.081 0 .161.01.242.01.685.064 1.352.49 2.02 1.31.781.96 1.476 2.465 1.98 4.348a26.556 26.556 0 0 1-8.412-.004c.206-.772.436-1.505.707-2.145.783-1.846 1.817-3.044 2.82-3.398.217-.077.43-.112.643-.12zm2.691.3a12 12 0 0 1 6.453 3.897c-1.09.538-2.424.975-3.918 1.283-.527-2.015-1.268-3.663-2.19-4.795a6.024 6.024 0 0 0-.345-.385zm-5.328.01c-.679.713-1.263 1.673-1.748 2.817-.302.71-.552 1.515-.773 2.359-1.493-.307-2.822-.75-3.914-1.29a11.974 11.974 0 0 1 6.435-3.886zm12.412 4.688c.347.482.656.997.932 1.535a7.51 7.51 0 0 0-3.104-.596c-.06 0-.122.013-.183.016.86-.27 1.649-.588 2.355-.955zm-19.48 0c1.215.629 2.675 1.124 4.297 1.46a26.085 26.085 0 0 0-.518 4.042c-.026.503-.024.999-.025 1.496h-6.01c0-.706.059-1.418.187-2.131a11.97 11.97 0 0 1 2.069-4.867zm5.285 1.636c1.47.242 3.035.37 4.639.36a27.777 27.777 0 0 0 4.263-.35c.005.024.013.046.018.07-.15.073-.301.139-.447.223a7.478 7.478 0 0 0-3.602 5.059H9.02c-.002-.48-.006-.959.02-1.444.072-1.394.249-2.713.507-3.918zm12.049.3a6.495 6.495 0 0 1 5.802 3.25 6.493 6.493 0 0 1-2.378 8.878 6.493 6.493 0 0 1-8.88-2.379 6.495 6.495 0 0 1 2.38-8.88 6.467 6.467 0 0 1 3.076-.87zm.277 1.497c-.242-.01-.485.01-.727.037a5.007 5.007 0 0 0-1.876.657c-2.384 1.376-3.218 4.423-1.84 6.808 1.378 2.387 4.452 3.217 6.84 1.838 2.386-1.378 3.218-4.45 1.84-6.838a5.02 5.02 0 0 0-4.237-2.502zm-.023 1a4.02 4.02 0 0 1 3.392 2.002c.106.183.18.372.254.563h-7.441a3.978 3.978 0 0 1 1.715-2.006c.49-.283.999-.467 1.5-.53.193-.023.386-.033.58-.028zm-19.801 3.565h5.976c.062 1.957.308 3.833.739 5.496-1.45.288-2.777.707-3.934 1.234a12.002 12.002 0 0 1-2.781-6.73zm6.988 0h5.25a7.454 7.454 0 0 0 .986 4.187c.183.316.39.606.61.885a28.089 28.089 0 0 0-6.08.244c-.424-1.589-.69-3.408-.766-5.316zm8.76 0h7.953a4.01 4.01 0 0 1-1.98 3.91 4.007 4.007 0 0 1-5.473-1.473 3.945 3.945 0 0 1-.5-2.437zm-4.17 6.004c1.098-.016 2.21.038 3.307.156.264.223.542.429.832.611-.726 1.993-1.682 3.32-2.61 3.881a2.459 2.459 0 0 1-.89.338c-.197 0-.393.01-.59 0-.46-.078-.927-.333-1.422-.795-.852-.795-1.588-2.187-2.15-3.908a26.888 26.888 0 0 1 3.523-.285zm-4.565.465c.56 1.752 1.322 3.226 2.284 4.224a11.994 11.994 0 0 1-2.533-.873 11.981 11.981 0 0 1-3.272-2.312c1.032-.436 2.221-.788 3.521-1.04zm17.016.1 3.856 6.68a.489.489 0 0 1-.182.683.489.489 0 0 1-.684-.184l-3.847-6.664c.1-.052.2-.096.299-.152.194-.112.378-.237.558-.363zm-7.428.68a7.55 7.55 0 0 0 3.354.68 11.97 11.97 0 0 1-5.334 2.763c.776-.81 1.436-1.985 1.98-3.444z" color="#000" font-family="sans-serif" font-weight="400" overflow="visible" transform="translate(0 -1020.362)" style="text-indent:0;text-align:start;line-height:normal;text-transform:none;block-progression:tb"></path></svg>