<svg xmlns="http://www.w3.org/2000/svg" data-name="Layer 1" viewBox="0 0 512 512" id="discount"><path fill="#2c2a2d" d="M512.06,251.58c-.37-23.53-23-39.48-45-53.3,12.63-24.69,23.11-49.57,11.13-70.27-12.58-21.73-41.56-24.37-70.75-25.71-1.78-29-4.87-57.8-26.78-69.95-21.43-11.89-47.77.38-70.12,12.3C295.45,21.59,279.23,0,256,0h0c-24.23,0-40.89,24.79-56.87,49.32C172.79,36.38,145.84,24,124.66,36.69c-19.73,11.81-22.13,39.27-23.26,67-28.11,1.54-56,4.2-67.66,24.31-12.47,21.59.77,48.67,14.36,75.06C23.89,219.36-.45,236.35-.06,260.42c.37,23.53,23,39.48,45,53.3C32.29,338.41,21.81,363.29,33.79,384c12.58,21.73,41.56,24.37,70.75,25.71,1.78,29,4.87,57.8,26.78,69.95a39.56,39.56,0,0,0,19.55,4.85c16.74,0,34.66-8.66,50.57-17.15C216.55,490.41,232.77,512,256,512h0c24.23,0,40.89-24.79,56.87-49.32,18.55,9.11,37.39,17.93,54.32,17.93a38.49,38.49,0,0,0,20.15-5.3c19.73-11.81,22.13-39.27,23.26-67,28.11-1.54,56-4.2,67.66-24.31,12.47-21.59-.77-48.67-14.36-75.06C488.11,292.64,512.45,275.65,512.06,251.58ZM373.4,45.47c14.7,8.15,17.44,31.75,19,56.16-16.56-.83-32.59-2.3-42.42-8-11.06-6.35-21.31-21.15-31.21-36.37C340.71,45.78,359.85,38,373.4,45.47Zm-241,4.1c14-8.38,36.28,1.53,58.47,12.38-9,13.45-18.45,25.81-28.76,31.74-11.08,6.39-28.11,8.16-45.62,9.21C117.44,79.66,119.53,57.25,132.36,49.57ZM14.94,260.18c-.25-15.69,19.66-29.91,40-43.64C62.08,230.79,68.11,244.79,68.1,256c0,12.26-7.93,28.37-16.23,44.32C30.66,286.85,15.17,274.82,14.94,260.18ZM138.6,466.53c-14.7-8.15-17.44-31.75-19-56.16,16.56.83,32.59,2.3,42.42,8,11.06,6.35,21.31,21.15,31.21,36.37C171.29,466.22,152.15,474.05,138.6,466.53Zm241-4.1c-14,8.38-36.28-1.53-58.47-12.38,9-13.45,18.45-25.81,28.76-31.74,11.08-6.39,28.11-8.16,45.62-9.21C394.56,432.34,392.47,454.75,379.64,462.43Zm85.63-85.95c-8.31,14.37-35.09,15.77-61,17.12-22.43,1.17-45.63,2.38-61.83,11.71s-28.86,28.77-41.09,47.57C287.23,474.57,272.63,497,256,497h0c-17.58,0-32.47-23.08-46.88-45.39-11.88-18.4-24.16-37.42-39.59-46.29C154.88,396.91,134.07,396,112,395h-.07l-.56,0c-27.16-1.16-55.25-2.36-64.6-18.5s3.66-41,16.23-65C73.33,291.7,83.08,273.05,83.1,256c0-16.71-9.15-35.49-18.58-53.85L64.4,202l-1.69-3.3c-12.16-23.59-24.74-48-16-63.16,8.31-14.37,35.09-15.77,61-17.12,22.43-1.17,45.63-2.38,61.83-11.71s28.86-28.77,41.09-47.57C224.77,37.43,239.37,15,256,15h0c17.58,0,32.47,23.08,46.88,45.39,11.88,18.4,24.16,37.42,39.59,46.29,14.77,8.49,35.84,9.38,58.14,10.34,27.16,1.16,55.25,2.36,64.6,18.51h0c9.34,16.14-3.66,41-16.23,65C438.67,220.3,428.92,239,428.9,256c0,16.71,9.15,35.49,18.58,53.85l.12.21,1.69,3.3C461.45,336.91,474,361.3,465.27,376.48Zm-8.24-81c-7.11-14.25-13.14-28.25-13.13-39.49,0-12.26,7.93-28.37,16.23-44.32,21.21,13.5,36.7,25.53,36.93,40.17C497.31,267.51,477.4,281.73,457,295.46ZM316.63,193.8a7.51,7.51,0,0,0-10.61,0L193.82,306a7.5,7.5,0,0,0,10.61,10.61l112.2-112.24A7.5,7.5,0,0,0,316.63,193.8ZM256,101.64c-85.11,0-154.36,69.25-154.36,154.36S170.89,410.36,256,410.36,410.36,341.11,410.36,256,341.11,101.64,256,101.64Zm0,293.72c-76.84,0-139.36-62.52-139.36-139.36S179.16,116.64,256,116.64,395.36,179.16,395.36,256,332.84,395.36,256,395.36ZM232.29,232.28h0a32.12,32.12,0,1,0-22.72,9.41A32.18,32.18,0,0,0,232.29,232.28Zm-34.82-34.84a17.14,17.14,0,1,1,0,24.23A17,17,0,0,1,197.47,197.44Zm105,72.87a32.13,32.13,0,1,0,22.71,9.41A31.92,31.92,0,0,0,302.43,270.31Zm12.1,44.25a17.14,17.14,0,1,1,0-24.23A17,17,0,0,1,314.53,314.56Z"></path></svg>