<svg xmlns="http://www.w3.org/2000/svg" width="32" height="32" id="website"><path style="text-indent:0;text-align:start;line-height:normal;text-transform:none;block-progression:tb;marker:none;-inkscape-font-specification:Sans" d="M-11.75 1018.867c-8.28 0-15 6.733-15 15.03h1c0-7.757 6.263-14.03 14-14.03s14 6.273 14 14.03h1c0-8.296-6.72-15.03-15-15.03zm-.5 2v2h1v-2h-1zm-2.375.312-.969.25.5 1.938.969-.282-.5-1.906zm5.75 0-.5 1.906.969.282.5-1.938-.969-.25zm3.187 1.188-1 1.75.875.5 1-1.75-.875-.5zm-12.125.03-.875.5 1 1.75.875-.5-1-1.75zm14.907 1.938-1.407 1.406.688.688 1.406-1.406-.687-.688zm-17.688.062-.687.688 1.406 1.406.687-.688-1.406-1.406zm8.719.469a.5.5 0 0 0-.375.406l-1 7a.506.506 0 0 0 .031.25 1.975 1.975 0 0 0-.531 1.344h1c0-.558.442-1 1-1s1 .442 1 1h1c0-.51-.212-.958-.531-1.313a.506.506 0 0 0 .031-.28l-1-7a.5.5 0 0 0-.625-.407zm11.125 2.031-1.719 1 .5.875 1.719-1-.5-.875zm-22 .094-.5.875 1.719 1 .5-.875-1.719-1zm11 1.938.437 3a2.043 2.043 0 0 0-.437-.062c-.148 0-.298.03-.438.062l.438-3zm12.437.937-1.937.5.25.969 1.937-.5-.25-.969zm-24.875.219-.25.969 1.938.53.25-.968-1.938-.531zm-.562 2.781v1h2v-1h-2zm24 0v1h2v-1h-2z" color="#000" enable-background="accumulate" font-family="Sans" font-weight="400" overflow="visible" transform="translate(27.75 -1010.898)"></path></svg>