<svg xmlns="http://www.w3.org/2000/svg" viewBox="0 0 806.322 1010" id="ssl"><path fill="#DAB466" fill-rule="evenodd" d="M725.937 149.07l18.92 61.511 61.465 18.942-61.466 18.897-18.92 61.422-18.92-61.422-61.465-18.897 61.466-18.942 18.92-61.51zM563.371 0l26.183 85.183 85.227 26.227-85.227 26.227-26.183 85.228-26.227-85.228-85.229-26.227 85.23-26.227L563.371 0z" clip-rule="evenodd"></path><path fill="#545454" d="M525.847 536.765v-73.482c0-128.627-106.12-233.335-236.63-233.335-130.486 0-236.628 104.708-236.628 233.335v73.482H0V1010h578.437V536.765h-52.59zM331.496 917.778h-98.342l25.04-136.157c-14.684-8.542-25.04-23.785-25.04-41.92 0-27.236 21.992-49.182 49.116-49.182 27.213 0 49.226 21.946 49.226 49.182 0 18.135-10.402 33.378-25.062 41.92l25.062 136.157zm89.172-381.013h-262.9v-73.482c0-69.447 60.21-128.134 131.45-128.134 71.218 0 131.45 58.687 131.45 128.134v73.482z"></path></svg>