<svg xmlns="http://www.w3.org/2000/svg" data-name="Layer 2" viewBox="0 0 100 100" id="mail-template"><path d="M84 48h-6V18a6 6 0 0 0-6-6H32a6 6 0 0 0-6 6v6H16a6 6 0 0 0-6 6v36a6 6 0 0 0 6 6h10v2a6 6 0 0 0 6 6h2v2a6 6 0 0 0 6 6h44a6 6 0 0 0 6-6V54a6 6 0 0 0-6-6ZM16 68a2 2 0 0 1-2-2V30a2 2 0 0 1 2-2h10v4h-6a2 2 0 0 0-2 2v8a2 2 0 0 0 4 0v-6h4v20h-4v-2a2 2 0 0 0-4 0v4a2 2 0 0 0 2 2h6v8Zm70 14a2 2 0 0 1-2 2H40a2 2 0 0 1-2-2V54a2 2 0 0 1 2-2h4a2 2 0 0 0 0-4h-4a6 6 0 0 0-6 6v22h-2a2 2 0 0 1-2-2V18a2 2 0 0 1 2-2h40a2 2 0 0 1 2 2v30H56a2 2 0 0 0 0 4h28a2 2 0 0 1 2 2Zm-6-26H68a2 2 0 0 0-2 2v8a2 2 0 0 0 2 2h12a2 2 0 0 0 2-2v-8a2 2 0 0 0-2-2Zm-2 8h-8v-4h8ZM36 32h12a2 2 0 0 0 2-2v-8a2 2 0 0 0-2-2H36a2 2 0 0 0-2 2v8a2 2 0 0 0 2 2Zm2-8h8v4h-8Zm25 54a2 2 0 0 1-2 2H44a2 2 0 0 1 0-4h17a2 2 0 0 1 2 2Zm-21-8a2 2 0 0 1 2-2h13a2 2 0 0 1 0 4H44a2 2 0 0 1-2-2Zm8-22a2 2 0 1 1-2 2 2 2 0 0 1 2-2Zm0-10a2 2 0 1 1 2 2 2 2 0 0 1-2-2ZM18 48a2 2 0 1 1 2 2 2 2 0 0 1-2-2Zm36-26a2 2 0 0 1 2-2h12a2 2 0 0 1 0 4H56a2 2 0 0 1-2-2Zm0 8a2 2 0 0 1 2-2h12a2 2 0 0 1 0 4H56a2 2 0 0 1-2-2Zm16 8a2 2 0 0 1-2 2H58a2 2 0 0 1 0-4h10a2 2 0 0 1 2 2Zm-24 2H36a2 2 0 0 1 0-4h10a2 2 0 0 1 0 4Z"></path></svg>