<svg xmlns="http://www.w3.org/2000/svg" viewBox="0 0 32 32" id="feedback"><g data-name="Layer 2"><path d="M12.66 21.5A3 3 0 0 1 8 19v-9a5 5 0 0 1 5-5h8a3.009 3.009 0 0 0-3-3H6a3.009 3.009 0 0 0-3 3v22a3.009 3.009 0 0 0 3 3h12a3.009 3.009 0 0 0 3-3v-7h-6.09ZM13 26h-2a1 1 0 0 1 0-2h2a1 1 0 0 1 0 2Z"></path><path d="M26 7H13a3 3 0 0 0-3 3v9a1 1 0 0 0 1.555.832L14.3 18H26a3 3 0 0 0 3-3v-5a3 3 0 0 0-3-3Zm-8.928 5.339-.529.515a.2.2 0 0 0-.058.18l.125.728a.2.2 0 0 1-.295.214l-.654-.343a.2.2 0 0 0-.189 0l-.653.343a.2.2 0 0 1-.3-.214l.125-.728a.2.2 0 0 0-.059-.18l-.528-.515a.2.2 0 0 1 .112-.346l.731-.107a.2.2 0 0 0 .153-.111l.326-.662a.2.2 0 0 1 .365 0l.327.662a.2.2 0 0 0 .153.111l.73.107a.2.2 0 0 1 .118.346Zm4.106 0-.529.515a.2.2 0 0 0-.058.18l.124.728a.2.2 0 0 1-.294.214l-.654-.343a.2.2 0 0 0-.189 0l-.653.343a.2.2 0 0 1-.3-.214l.125-.728a.2.2 0 0 0-.059-.18l-.529-.515a.2.2 0 0 1 .113-.346l.731-.107a.2.2 0 0 0 .153-.111l.326-.662a.2.2 0 0 1 .365 0l.327.662a.2.2 0 0 0 .153.111l.73.107a.2.2 0 0 1 .118.346Zm3.76 0-.528.515a.2.2 0 0 0-.059.18l.125.728a.2.2 0 0 1-.295.214l-.653-.343a.2.2 0 0 0-.189 0l-.654.343a.2.2 0 0 1-.295-.214l.125-.728a.2.2 0 0 0-.058-.18l-.529-.515a.2.2 0 0 1 .113-.346l.73-.107a.2.2 0 0 0 .153-.111l.327-.662a.2.2 0 0 1 .365 0l.326.662a.2.2 0 0 0 .153.111l.731.107a.2.2 0 0 1 .112.346Z"></path></g></svg>