<svg xmlns="http://www.w3.org/2000/svg" width="512" height="512" fill="none" viewBox="0 0 24 24" id="web-optimization"><g fill="#000"><path d="m21.3656 2h-18.63747c-1.50469 0-2.72813 1.2-2.72813 2.67188v14.81252c0 1.5 1.25156 2.7656 2.72813 2.7656h18.63747c1.4531 0 2.6344-1.2422 2.6344-2.7656v-14.81252c0-1.5-1.1578-2.67188-2.6344-2.67188zm.7594 17.4844c0 .4922-.3422.8906-.7594.8906h-18.63747c-.44532 0-.85313-.4266-.85313-.8906v-14.81252c0-.44063.38438-.79688.85313-.79688h18.63747c.4453 0 .7594.32812.7594.79688z"></path><path d="m19.4016 16.2828-3.5907-2.4422c.15-.4219.2391-.8672.2625-1.3312.0516.0047.1032 0 .1594-.0047l.9234-.1453c.3844-.061.6469-.4172.586-.8016l-.136-.8719c-.0609-.3843-.4171-.6468-.8015-.5859l-.9235.1453c-.0796.0141-.1546.0375-.225.075-.1968-.42656-.45-.82031-.7593-1.16718.0609-.04219.1125-.09844.1593-.15938l.5438-.75937c.225-.31406.1547-.75469-.1641-.97969l-.7172-.51094c-.314-.225-.7546-.15468-.9796.16407l-.5438.75937c-.0516.07031-.0844.14531-.1078.22031-.4266-.16875-.8813-.27656-1.3594-.31406.0094-.06562.0047-.13125-.0047-.19687l-.1593-.92344c-.0657-.38438-.4313-.6375-.811-.57188l-.86717.15c-.38438.06563-.6375.43125-.57188.81094l.15938.92344c.00938.05625.02812.1125.05156.16406-.41719.17813-.80156.40781-1.14375.68906-.02344-.02812-.05156-.05625-.08437-.07968l-.72657-.58594c-.30468-.24375-.74531-.19219-.98906.1125l-.54844.68437c-.24375.30469-.19218.74532.11251.98907l.73124.58594c.04688.0375.09844.0656.15.0891-.16406.3843-.28125.7921-.3375 1.2187l-.91875.1125c-.38437.0469-.66093.3984-.61406.7828l.10781.8719c.04688.3844.39844.6609.78282.6141l.89062-.1079c.18281.4875.44063.9422.76406 1.3407l-.52031.675c-.23906.3093-.17812.75.12656.9843l.69844.5391c.30938.2391.75.1781.98438-.1266l.53906-.6984c.46875.1969.97032.3234 1.50002.3563l.1219.8671c.0515.3844.4078.6516.7921.6l.8719-.1218c.3844-.0516.6516-.4078.6-.7922l-.1265-.9281c0-.0094-.0047-.0141-.0047-.0235.5953-.2672 1.125-.6515 1.5609-1.1297l3.5016 2.3813c.1593.1078.3468.164.525.164.3 0 .5953-.1453.7781-.4125.2906-.4218.1781-1.0031-.2484-1.2984zm-8.0391-1.1672c-1.56563 0-2.84532-1.275-2.84532-2.8453s1.275-2.84531 2.84532-2.84531c1.5656 0 2.8453 1.27501 2.8453 2.84531s-1.275 2.8453-2.8453 2.8453z"></path></g></svg>