<?xml version="1.0" encoding="UTF-8"?>
<svg width="21px" height="23px" viewBox="0 0 21 23" version="1.1" xmlns="http://www.w3.org/2000/svg" xmlns:xlink="http://www.w3.org/1999/xlink">
    <title>Android Active</title>
    <g id="Icons" stroke="none" stroke-width="1" fill="none" fill-rule="evenodd">
        <g id="OS-Icons" transform="translate(-11.000000, -53.000000)" fill="#B8E986" fill-rule="nonzero">
            <path d="M28.1395514,60.5826243 L28.1395514,70.0922722 C28.1395514,70.7918468 27.5439495,71.3616034 26.8162787,71.3616034 L26.8162787,71.3616034 L25.4001272,71.3616034 L25.4001272,74.6147238 C25.4001272,75.3777374 24.7529419,76 23.9581839,76 L23.9581839,76 L23.8972695,76 C23.1055741,76 22.4542735,75.3787021 22.4542735,74.6147238 L22.4542735,74.6147238 L22.4542735,71.3616034 L20.47659,71.3616034 L20.47659,74.6147238 C20.47659,75.3777374 19.8283998,76 19.033594,76 L19.033594,76 L18.9716748,76 C18.1799793,76 17.5307364,75.3787021 17.5307364,74.6147238 L17.5307364,74.6147238 L17.5307364,71.3616034 L16.1155897,71.3616034 C15.3868662,71.3616034 14.7913121,70.7918468 14.7913121,70.0922722 L14.7913121,70.0922722 L14.7913121,60.5826243 L28.1395514,60.5826243 Z M30.3761863,60.5826243 C31.1699393,60.5826243 31.8181774,61.2058975 31.8181774,61.9658792 L31.8181774,61.9658792 L31.8181774,67.9885873 C31.8181774,68.7495796 31.1719969,69.3728528 30.377239,69.3728528 L30.377239,69.3728528 L30.3163246,69.3728528 C29.5236243,69.3728528 28.8733286,68.7516009 28.8733286,67.9885873 L28.8733286,67.9885873 L28.8733286,61.9659251 C28.8733286,61.2058975 29.5225715,60.5826243 30.3163246,60.5826243 L30.3163246,60.5826243 Z M12.5028576,60.5826243 C13.2956058,60.5826243 13.943796,61.2058975 13.9448488,61.9658792 L13.9448488,61.9658792 L13.9448488,67.9885873 C13.9448488,68.7495796 13.2976634,69.3728528 12.5039104,69.3728528 L12.5039104,69.3728528 L12.4409384,69.3728528 C11.6471853,69.3728528 11,68.7516009 11,67.9885873 L11,67.9885873 L11,61.9659251 C11,61.2058975 11.6471853,60.5826243 12.4409384,60.5826243 L12.4409384,60.5826243 Z M25.5580356,53.105046 C25.6292858,52.9970481 25.7789639,52.9682916 25.8883514,53.0376565 C25.9987916,53.1060566 26.0308039,53.2497016 25.9585488,53.3547596 L25.9585488,53.3547596 L24.83448,55.0204352 C26.8616894,55.9746844 28.2303249,57.7731639 28.2303249,59.8361946 C28.2303249,59.9630266 28.2230994,60.0878834 28.2117587,60.2117295 L28.2117587,60.2117295 L14.8109311,60.2117295 C14.7995904,60.0878834 14.7913121,59.9630266 14.7913121,59.8361946 C14.7913121,57.7731639 16.1589427,55.9746844 18.1872048,55.0204352 L18.1872048,55.0204352 L17.0621311,53.3547596 C16.9898761,53.2497016 17.0218884,53.1060107 17.1323286,53.0376565 C17.2427688,52.9682916 17.3934996,52.9970481 17.4647019,53.105046 L17.4647019,53.105046 L18.6279608,54.8282348 C19.5042569,54.4843963 20.4786476,54.2911853 21.5108424,54.2911853 C22.5420324,54.2911853 23.5184807,54.4843963 24.3927192,54.8282348 L24.3927192,54.8282348 Z M18.40397,56.7673733 C18.0478626,56.7673733 17.7588423,57.0418928 17.7588423,57.3847206 C17.7588423,57.7275485 18.0478626,58.0030327 18.40397,58.0030327 C18.7600775,58.0030327 19.0490978,57.7275944 19.0490978,57.3847206 C19.0490978,57.0418469 18.7621351,56.7673733 18.40397,56.7673733 Z M24.6167099,56.7673733 C24.2606025,56.7673733 23.9715822,57.0418928 23.9715822,57.3847206 C23.9715822,57.7275485 24.2606025,58.0030327 24.6167099,58.0030327 C24.9738223,58.0030327 25.260785,57.7275485 25.260785,57.3847206 C25.260785,57.0418469 24.9738223,56.7673733 24.6167099,56.7673733 Z" id="Android-Active"></path>
        </g>
    </g>
</svg>