<svg width="24" height="24" viewBox="0 0 24 24" fill="none" xmlns="http://www.w3.org/2000/svg">
<g id="Brave Active">
<g id="Brave">
<rect id="BOX" opacity="0.01" width="24" height="24" fill="white" fill-opacity="0.01"/>
<path id="Vector" fill-rule="evenodd" clip-rule="evenodd" d="M21.7264 5.75738L22.2886 4.37591C22.2886 4.37591 21.5733 3.60819 20.7044 2.73836C19.8356 1.86835 17.9957 2.38016 17.9957 2.38016L15.9004 0H8.5413L6.44599 2.38016C6.44599 2.38016 4.60622 1.86853 3.73748 2.73836C2.86856 3.60837 2.15307 4.37555 2.15307 4.37555L2.7153 5.75701L2 7.80391C2 7.80391 4.10387 15.784 4.35049 16.7587C4.83592 18.6776 5.16809 19.4195 6.5481 20.3916C7.92774 21.3639 10.432 23.0526 10.8408 23.3084C11.2496 23.5643 11.7607 24 12.2207 24C12.6806 24 13.1917 23.5643 13.6005 23.3084C14.0095 23.0524 16.5136 21.3639 17.8934 20.3916C19.2732 19.4195 19.6054 18.6776 20.0908 16.7587C20.3374 15.7842 22.4417 7.80409 22.4417 7.80409L21.7264 5.75738V5.75738Z" fill="url(#paint0_linear_2147_281)"/>
<path id="Vector_2" fill-rule="evenodd" clip-rule="evenodd" d="M17.4082 3.88966C17.4082 3.88966 20.1034 7.15166 20.1034 7.84895C20.1034 8.54605 19.7643 8.73007 19.4234 9.09263L17.4027 11.2411C17.2116 11.4444 16.8134 11.7525 17.0476 12.3073C17.2817 12.8621 17.627 13.5679 17.2429 14.284C16.8589 14.9998 16.2009 15.4778 15.7794 15.3988C15.3576 15.3196 14.3675 14.8016 14.0033 14.565C13.6393 14.3284 12.4853 13.3752 12.4853 13.0106C12.4853 12.646 13.6782 11.9913 13.8985 11.8426C14.1191 11.6939 15.1243 11.1182 15.1449 10.8924C15.1654 10.6663 15.1576 10.6 14.8609 10.0416C14.5643 9.48323 14.0299 8.73807 14.1189 8.24228C14.2079 7.74666 15.0695 7.48875 15.6842 7.25632C16.2992 7.02389 17.483 6.5847 17.6308 6.51644C17.7788 6.44819 17.7405 6.38321 17.2924 6.34062C16.8447 6.29803 15.5733 6.12913 15.0002 6.28911C14.4268 6.4491 13.4478 6.69245 13.3684 6.8215C13.2893 6.95054 13.2192 6.95491 13.3007 7.40011C13.3821 7.84513 13.8014 9.98139 13.8422 10.3607C13.8828 10.7402 13.9623 10.991 13.5539 11.0846C13.1453 11.1781 12.4575 11.3405 12.221 11.3405C11.9848 11.3405 11.2968 11.1781 10.8882 11.0846C10.4796 10.991 10.5593 10.7402 10.6001 10.3607C10.6406 9.98139 11.06 7.84531 11.1415 7.40011C11.2229 6.95491 11.153 6.95054 11.0736 6.82131C10.9943 6.69245 10.0151 6.4491 9.44192 6.28911C8.86876 6.12913 7.5976 6.29821 7.14967 6.34062C6.70155 6.38321 6.66333 6.44801 6.81113 6.51644C6.9591 6.5847 8.14308 7.02389 8.75792 7.25632C9.37275 7.48875 10.2344 7.74666 10.3232 8.24228C10.4122 8.73807 9.87783 9.48323 9.58134 10.0416C9.28466 10.6 9.27683 10.6663 9.2974 10.8924C9.31797 11.1182 10.3232 11.6939 10.5436 11.8426C10.7639 11.9913 11.9569 12.646 11.9569 13.0106C11.9569 13.3752 10.803 14.3284 10.4388 14.565C10.0748 14.8016 9.08463 15.3196 8.66291 15.3986C8.24119 15.4778 7.58322 15 7.19917 14.284C6.81513 13.5679 7.16041 12.8621 7.39447 12.3073C7.62872 11.7525 7.23066 11.4444 7.03955 11.2411L5.01868 9.09263C4.67777 8.73007 4.33887 8.54605 4.33887 7.84895C4.33887 7.15185 7.03391 3.88966 7.03391 3.88966C7.03391 3.88966 9.30814 4.32467 9.61483 4.32467C9.92133 4.32467 10.5857 4.06876 11.1991 3.86418C11.8122 3.65941 12.221 3.65796 12.221 3.65796C12.221 3.65796 12.6298 3.65941 13.2432 3.86418C13.8566 4.06876 14.5209 4.32467 14.8274 4.32467C15.1341 4.32467 17.4084 3.88966 17.4084 3.88966H17.4082ZM15.3879 16.3676C15.5546 16.4723 15.4528 16.6694 15.301 16.777C15.1491 16.8844 13.1067 18.4678 12.9085 18.6429C12.7103 18.818 12.4191 19.1071 12.221 19.1071C12.023 19.1071 11.7318 18.818 11.5336 18.6429C11.3352 18.4678 9.29303 16.8845 9.14123 16.777C8.98925 16.6694 8.88751 16.4723 9.05423 16.3676C9.22114 16.2631 9.74314 15.9992 10.4634 15.6261C11.1834 15.253 12.0811 14.9357 12.221 14.9357C12.3612 14.9357 13.2585 15.253 13.9789 15.6261C14.6991 15.9992 15.221 16.2631 15.3879 16.3676Z" fill="white"/>
<path id="Vector_3" d="M17.9955 2.38016L15.9002 0H8.54113L6.44581 2.38016C6.44581 2.38016 4.60604 1.86853 3.7373 2.73836C3.7373 2.73836 6.19027 2.51667 7.03353 3.88958C7.03353 3.88958 9.30776 4.32459 9.61445 4.32459C9.92095 4.32459 10.5853 4.06868 11.1987 3.8641C11.8119 3.65934 12.2207 3.65788 12.2207 3.65788C12.2207 3.65788 12.6295 3.65934 13.2428 3.8641C13.8562 4.06868 14.5206 4.32459 14.8271 4.32459C15.1338 4.32459 17.408 3.88958 17.408 3.88958C18.2511 2.51667 20.7042 2.73836 20.7042 2.73836C19.8355 1.86835 17.9955 2.38016 17.9955 2.38016" fill="#EC5C2A"/>
</g>
</g>
<defs>
<linearGradient id="paint0_linear_2147_281" x1="12.2208" y1="0" x2="12.2208" y2="24" gradientUnits="userSpaceOnUse">
<stop stop-color="#EC612A"/>
<stop offset="1" stop-color="#EA3D25"/>
</linearGradient>
</defs>
</svg>
