<svg width="32" height="33" viewBox="0 0 32 33" fill="none" xmlns="http://www.w3.org/2000/svg">
<path d="M15.7775 0.52594C7.06357 0.52594 0 7.58951 0 16.3034C0 25.0163 7.06357 32.0809 15.7775 32.0809C24.4914 32.0809 31.5549 25.0163 31.5549 16.3034C31.5549 7.58951 24.4908 0.52594 15.7775 0.52594ZM15.7775 1.84494C20.2204 1.84494 24.1984 3.86025 26.8538 7.0231C21.5685 4.66386 15.8931 3.30063 10.1128 3.00195C11.8536 2.25778 13.7679 1.84494 15.7775 1.84494ZM8.74703 3.67565C15.2384 3.79976 21.886 5.63942 27.7726 8.23955C29.0769 10.1715 29.8916 12.3918 30.1465 14.7088C21.7934 10.39 12.2507 8.20168 3.35113 8.92271C4.65902 6.73117 6.51978 4.92174 8.74703 3.67565ZM15.7775 30.7619C7.80511 30.7619 1.319 24.2752 1.319 16.3034C1.319 13.9757 1.87542 11.7763 2.85677 9.82676C8.32223 9.43583 13.8139 10.0072 19.0818 11.5149C19.5972 11.9899 20.1026 12.4763 20.597 12.9723C19.8449 13.4345 19.3384 14.2513 19.3384 15.1985C19.3384 15.8981 19.6164 16.5691 20.1111 17.0638C20.6058 17.5585 21.2768 17.8365 21.9764 17.8365C22.8095 17.8365 23.5489 17.4494 24.0317 16.8456C25.6642 18.9062 27.111 21.1108 28.3327 23.4606C25.8388 27.8178 21.1465 30.7619 15.7775 30.7619ZM21.7834 12.3843C24.7244 13.4231 27.5554 14.7505 30.2349 16.3471C30.2307 18.3264 29.8173 20.2834 29.0206 22.0953C27.2098 18.4008 24.7286 15.1753 21.7834 12.3843Z" fill="#707070"/>
<path d="M9.57851 17.8365C11.0354 17.8365 12.2165 16.6554 12.2165 15.1985C12.2165 13.7416 11.0354 12.5605 9.57851 12.5605C8.12159 12.5605 6.94052 13.7416 6.94052 15.1985C6.94052 16.6554 8.12159 17.8365 9.57851 17.8365Z" fill="#707070"/>
<path d="M20.1925 21.9654C17.1501 21.1487 13.8353 21.7398 11.2604 23.5553C10.6245 24.0139 11.8157 25.68 12.4484 25.2182C14.1482 24.0223 16.854 23.1956 19.6556 23.9355C20.405 24.1348 20.9924 22.19 20.1925 21.9654Z" fill="#707070"/>
</svg>
