<?xml version="1.0" encoding="UTF-8"?>
<svg width="24px" height="24px" viewBox="0 0 24 24" version="1.1" xmlns="http://www.w3.org/2000/svg" xmlns:xlink="http://www.w3.org/1999/xlink">
    <title>Edge</title>
    <defs>
        <linearGradient x1="-7.97051215e-15%" y1="50.0129955%" x2="100.026435%" y2="50.0129955%" id="linearGradient-1">
            <stop stop-color="#0C59A4" offset="0%"></stop>
            <stop stop-color="#114A8B" offset="100%"></stop>
        </linearGradient>
        <radialGradient cx="55.2461807%" cy="50.9262508%" fx="55.2461807%" fy="50.9262508%" r="61.9753086%" gradientTransform="translate(0.552462,0.509263),scale(0.863187,1.000000),translate(-0.552462,-0.509263)" id="radialGradient-2">
            <stop stop-color="#000000" stop-opacity="0" offset="72%"></stop>
            <stop stop-color="#000000" stop-opacity="0.53" offset="95%"></stop>
            <stop stop-color="#000000" offset="100%"></stop>
        </radialGradient>
        <linearGradient x1="76.6569725%" y1="24.7942842%" x2="33.2379941%" y2="83.1510351%" id="linearGradient-3">
            <stop stop-color="#1B9DE2" offset="0%"></stop>
            <stop stop-color="#1595DF" offset="16%"></stop>
            <stop stop-color="#0680D7" offset="67%"></stop>
            <stop stop-color="#0078D4" offset="100%"></stop>
        </linearGradient>
        <radialGradient cx="51.5261383%" cy="20.7274079%" fx="51.5261383%" fy="20.7274079%" r="105.641453%" gradientTransform="translate(0.515261,0.207274),scale(1.000000,0.810421),rotate(-72.277194),scale(1.000000,2.464105),translate(-0.515261,-0.207274)" id="radialGradient-4">
            <stop stop-color="#000000" stop-opacity="0" offset="0%"></stop>
            <stop stop-color="#000000" stop-opacity="0.5" offset="95%"></stop>
            <stop stop-color="#000000" offset="100%"></stop>
        </radialGradient>
        <radialGradient cx="10.1019077%" cy="27.7890034%" fx="10.1019077%" fy="27.7890034%" r="118.830871%" gradientTransform="translate(0.101019,0.277890),scale(0.665925,1.000000),rotate(92.290610),translate(-0.101019,-0.277890)" id="radialGradient-5">
            <stop stop-color="#35C1F1" offset="0%"></stop>
            <stop stop-color="#34C1ED" offset="11%"></stop>
            <stop stop-color="#2FC2DF" offset="23%"></stop>
            <stop stop-color="#2BC3D2" offset="31%"></stop>
            <stop stop-color="#36C752" offset="67%"></stop>
        </radialGradient>
        <radialGradient cx="93.7723426%" cy="45.4027789%" fx="93.7723426%" fy="45.4027789%" r="57.0950674%" gradientTransform="translate(0.937723,0.454028),scale(0.665925,1.000000),rotate(73.739795),translate(-0.937723,-0.454028)" id="radialGradient-6">
            <stop stop-color="#66EB6E" offset="0%"></stop>
            <stop stop-color="#66EB6E" stop-opacity="0" offset="100%"></stop>
        </radialGradient>
    </defs>
    <g id="Icons" stroke="none" stroke-width="1" fill="none" fill-rule="evenodd">
        <g id="Browser-Icons" transform="translate(-79.000000, -9.000000)">
            <g id="Edge" transform="translate(79.000000, 9.000000)">
                <rect id="BOX" fill-opacity="0.01" fill="#FFFFFF" opacity="0.01" x="0" y="0" width="24" height="24"></rect>
                <g id="Microsoft-Edge-Insider" transform="translate(1.000000, 1.000000)" fill-rule="nonzero">
                    <path d="M19.8642023,16.3108171 C19.5720203,16.4636254 19.2706966,16.5982776 18.9619455,16.7140078 C17.9791753,17.0817328 16.9381053,17.2690674 15.8887938,17.2670039 C11.8380545,17.2670039 8.30949416,14.4806226 8.30949416,10.9049805 C8.32005377,9.92842189 8.85814541,9.03400419 9.71595331,8.56715953 C6.05214008,8.72124514 5.11050584,12.539144 5.11050584,14.7759533 C5.11050584,21.1003113 10.9392218,21.7414786 12.1950195,21.7414786 C12.8721401,21.7414786 13.8933852,21.5445914 14.5063035,21.3511284 L14.6184436,21.313463 C16.9770183,20.4980855 18.9877189,18.9040165 20.3196109,16.7936187 C20.403531,16.6613989 20.387055,16.4890952 20.2795986,16.3751751 C20.1721421,16.2612551 20.0010932,16.2347542 19.8642023,16.3108171 Z" id="Shape" fill="url(#linearGradient-1)"></path>
                    <path d="M19.8642023,16.3108171 C19.5720203,16.4636254 19.2706966,16.5982776 18.9619455,16.7140078 C17.9791753,17.0817328 16.9381053,17.2690674 15.8887938,17.2670039 C11.8380545,17.2670039 8.30949416,14.4806226 8.30949416,10.9049805 C8.32005377,9.92842189 8.85814541,9.03400419 9.71595331,8.56715953 C6.05214008,8.72124514 5.11050584,12.539144 5.11050584,14.7759533 C5.11050584,21.1003113 10.9392218,21.7414786 12.1950195,21.7414786 C12.8721401,21.7414786 13.8933852,21.5445914 14.5063035,21.3511284 L14.6184436,21.313463 C16.9770183,20.4980855 18.9877189,18.9040165 20.3196109,16.7936187 C20.403531,16.6613989 20.387055,16.4890952 20.2795986,16.3751751 C20.1721421,16.2612551 20.0010932,16.2347542 19.8642023,16.3108171 Z" id="Shape" fill="url(#radialGradient-2)" opacity="0.35"></path>
                    <path d="M9.13470817,20.6663035 C8.37118252,20.1924066 7.70948611,19.5714479 7.18809339,18.8395331 C5.98515913,17.1914327 5.5721298,15.0959383 6.05969568,13.1146343 C6.54726155,11.1333304 7.88556775,9.46881048 9.71595331,8.56715953 C9.98303502,8.44132296 10.4392996,8.21361868 11.0462257,8.22474708 C11.9130434,8.23105831 12.7268959,8.64289494 13.2453696,9.33758755 C13.5910548,9.79914509 13.7816493,10.3583421 13.7898054,10.9349416 C13.7898054,10.916965 15.8836576,4.12093385 6.94155642,4.12093385 C3.18357977,4.12093385 0.093307393,7.68715953 0.093307393,10.8159533 C0.0784842978,12.4710437 0.432615303,14.1086437 1.12996109,15.6097276 C3.4889816,20.643032 9.24314704,23.1124145 14.5165759,21.3545525 C12.7112897,21.9237486 10.74726,21.673474 9.14241245,20.6697276 L9.13470817,20.6663035 Z" id="Shape" fill="url(#linearGradient-3)"></path>
                    <path d="M9.13470817,20.6663035 C8.37118252,20.1924066 7.70948611,19.5714479 7.18809339,18.8395331 C5.98515913,17.1914327 5.5721298,15.0959383 6.05969568,13.1146343 C6.54726155,11.1333304 7.88556775,9.46881048 9.71595331,8.56715953 C9.98303502,8.44132296 10.4392996,8.21361868 11.0462257,8.22474708 C11.9130434,8.23105831 12.7268959,8.64289494 13.2453696,9.33758755 C13.5910548,9.79914509 13.7816493,10.3583421 13.7898054,10.9349416 C13.7898054,10.916965 15.8836576,4.12093385 6.94155642,4.12093385 C3.18357977,4.12093385 0.093307393,7.68715953 0.093307393,10.8159533 C0.0784842978,12.4710437 0.432615303,14.1086437 1.12996109,15.6097276 C3.4889816,20.643032 9.24314704,23.1124145 14.5165759,21.3545525 C12.7112897,21.9237486 10.74726,21.673474 9.14241245,20.6697276 L9.13470817,20.6663035 Z" id="Shape" fill="url(#radialGradient-4)" opacity="0.41"></path>
                    <path d="M13.1238132,12.7428794 C13.0544747,12.8327626 12.841323,12.9568872 12.841323,13.227393 C12.841323,13.4508171 12.9868482,13.6656809 13.2453696,13.8463035 C14.4763424,14.7023346 16.7970428,14.5893385 16.803035,14.5893385 C17.7151583,14.5871494 18.6099933,14.3403086 19.3942412,13.8745525 C21.0040663,12.9345814 21.9953247,11.2120134 21.999144,9.34785992 C22.0214008,7.42949416 21.3143191,6.15400778 21.0284047,5.58902724 C19.2144747,2.04077821 15.2989883,0 11.0410895,0 C5.0492629,-0.000592482441 0.168151083,4.8118787 0.0838910506,10.8031128 C0.124980545,7.6751751 3.2340856,5.14902724 6.93214008,5.14902724 C7.23175097,5.14902724 8.94038911,5.1781323 10.5274708,6.01105058 C11.9262257,6.74552529 12.6589883,7.63237354 13.1683268,8.51151751 C13.6973541,9.42490272 13.7915175,10.5788327 13.7915175,11.0385214 C13.7915175,11.4982101 13.556965,12.1796109 13.1238132,12.7428794 Z" id="Shape" fill="url(#radialGradient-5)"></path>
                    <path d="M13.1238132,12.7428794 C13.0544747,12.8327626 12.841323,12.9568872 12.841323,13.227393 C12.841323,13.4508171 12.9868482,13.6656809 13.2453696,13.8463035 C14.4763424,14.7023346 16.7970428,14.5893385 16.803035,14.5893385 C17.7151583,14.5871494 18.6099933,14.3403086 19.3942412,13.8745525 C21.0040663,12.9345814 21.9953247,11.2120134 21.999144,9.34785992 C22.0214008,7.42949416 21.3143191,6.15400778 21.0284047,5.58902724 C19.2144747,2.04077821 15.2989883,0 11.0410895,0 C5.0492629,-0.000592482441 0.168151083,4.8118787 0.0838910506,10.8031128 C0.124980545,7.6751751 3.2340856,5.14902724 6.93214008,5.14902724 C7.23175097,5.14902724 8.94038911,5.1781323 10.5274708,6.01105058 C11.9262257,6.74552529 12.6589883,7.63237354 13.1683268,8.51151751 C13.6973541,9.42490272 13.7915175,10.5788327 13.7915175,11.0385214 C13.7915175,11.4982101 13.556965,12.1796109 13.1238132,12.7428794 Z" id="Shape" fill="url(#radialGradient-6)"></path>
                </g>
            </g>
        </g>
    </g>
</svg>