<?xml version="1.0" encoding="UTF-8"?>
<svg width="24px" height="24px" viewBox="0 0 24 24" version="1.1" xmlns="http://www.w3.org/2000/svg" xmlns:xlink="http://www.w3.org/1999/xlink">
    <title>Mozilla Firefox</title>
    <defs>
        <linearGradient x1="87.2589118%" y1="15.485279%" x2="9.35482372%" y2="93.1163773%" id="linearGradient-1">
            <stop stop-color="#FFF44F" offset="4.8%"></stop>
            <stop stop-color="#FFE847" offset="11.1%"></stop>
            <stop stop-color="#FFC830" offset="22.5%"></stop>
            <stop stop-color="#FF980E" offset="36.8%"></stop>
            <stop stop-color="#FF8B16" offset="40.1%"></stop>
            <stop stop-color="#FF672A" offset="46.2%"></stop>
            <stop stop-color="#FF3647" offset="53.4%"></stop>
            <stop stop-color="#E31587" offset="70.5%"></stop>
        </linearGradient>
        <radialGradient cx="85.9133053%" cy="-12.9389624%" fx="85.9133053%" fy="-12.9389624%" r="128.365076%" gradientTransform="translate(0.859133,-0.129390),scale(0.813017,1.000000),translate(-0.859133,0.129390)" id="radialGradient-2">
            <stop stop-color="#FFBD4F" offset="12.9%"></stop>
            <stop stop-color="#FFAC31" offset="18.6%"></stop>
            <stop stop-color="#FF9D17" offset="24.7%"></stop>
            <stop stop-color="#FF980E" offset="28.3%"></stop>
            <stop stop-color="#FF563B" offset="40.3%"></stop>
            <stop stop-color="#FF3750" offset="46.7%"></stop>
            <stop stop-color="#F5156C" offset="71%"></stop>
            <stop stop-color="#EB0878" offset="78.2%"></stop>
            <stop stop-color="#E50080" offset="86%"></stop>
        </radialGradient>
        <radialGradient cx="47.7781081%" cy="39.5405056%" fx="47.7781081%" fy="39.5405056%" r="128.365447%" gradientTransform="translate(0.477781,0.395405),scale(0.813017,1.000000),translate(-0.477781,-0.395405)" id="radialGradient-3">
            <stop stop-color="#960E18" offset="30%"></stop>
            <stop stop-color="#B11927" stop-opacity="0.74" offset="35.1%"></stop>
            <stop stop-color="#DB293D" stop-opacity="0.343" offset="43.5%"></stop>
            <stop stop-color="#F5334B" stop-opacity="0.094" offset="49.7%"></stop>
            <stop stop-color="#FF3750" stop-opacity="0" offset="53%"></stop>
        </radialGradient>
        <radialGradient cx="49.999253%" cy="-29.9986434%" fx="49.999253%" fy="-29.9986434%" r="314.94394%" gradientTransform="translate(0.499993,-0.299986),scale(1.000000,0.589011),translate(-0.499993,0.299986)" id="radialGradient-4">
            <stop stop-color="#FFF44F" offset="13.2%"></stop>
            <stop stop-color="#FFDC3E" offset="25.2%"></stop>
            <stop stop-color="#FF9D12" offset="50.6%"></stop>
            <stop stop-color="#FF980E" offset="52.6%"></stop>
        </radialGradient>
        <radialGradient cx="19.4626795%" cy="110.094003%" fx="19.4626795%" fy="110.094003%" r="111.751472%" gradientTransform="translate(0.194627,1.100940),scale(1.000000,0.912261),translate(-0.194627,-1.100940)" id="radialGradient-5">
            <stop stop-color="#3A8EE6" offset="35.3%"></stop>
            <stop stop-color="#5C79F0" offset="47.2%"></stop>
            <stop stop-color="#9059FF" offset="66.9%"></stop>
            <stop stop-color="#C139E6" offset="100%"></stop>
        </radialGradient>
        <radialGradient cx="58.2460892%" cy="36.6190028%" fx="58.2460892%" fy="36.6190028%" r="59.2562872%" gradientTransform="translate(0.582461,0.366190),scale(1.000000,0.912261),rotate(-13.599171),translate(-0.582461,-0.366190)" id="radialGradient-6">
            <stop stop-color="#9059FF" stop-opacity="0" offset="20.6%"></stop>
            <stop stop-color="#8C4FF3" stop-opacity="0.064" offset="27.8%"></stop>
            <stop stop-color="#7716A8" stop-opacity="0.45" offset="74.7%"></stop>
            <stop stop-color="#6E008B" stop-opacity="0.6" offset="97.5%"></stop>
        </radialGradient>
        <radialGradient cx="208.106392%" cy="-103.896481%" fx="208.106392%" fy="-103.896481%" r="293.18616%" gradientTransform="translate(2.081064,-1.038965),scale(1.000000,0.996271),translate(-2.081064,1.038965)" id="radialGradient-7">
            <stop stop-color="#FFE226" offset="0%"></stop>
            <stop stop-color="#FFDB27" offset="12.1%"></stop>
            <stop stop-color="#FFC82A" offset="29.5%"></stop>
            <stop stop-color="#FFA930" offset="50.2%"></stop>
            <stop stop-color="#FF7E37" offset="73.2%"></stop>
            <stop stop-color="#FF7139" offset="79.2%"></stop>
        </radialGradient>
        <radialGradient cx="79.3105134%" cy="-40.8871847%" fx="79.3105134%" fy="-40.8871847%" r="193.791213%" gradientTransform="translate(0.793105,-0.408872),scale(0.839591,1.000000),translate(-0.793105,0.408872)" id="radialGradient-8">
            <stop stop-color="#FFF44F" offset="11.3%"></stop>
            <stop stop-color="#FF980E" offset="45.6%"></stop>
            <stop stop-color="#FF5634" offset="62.2%"></stop>
            <stop stop-color="#FF3647" offset="71.6%"></stop>
            <stop stop-color="#E31587" offset="90.4%"></stop>
        </radialGradient>
        <radialGradient cx="6.31528983%" cy="-10.3355023%" fx="6.31528983%" fy="-10.3355023%" r="348.769297%" gradientTransform="translate(0.063153,-0.103355),scale(1.000000,0.473494),rotate(83.972686),translate(-0.063153,0.103355)" id="radialGradient-9">
            <stop stop-color="#FFF44F" offset="0%"></stop>
            <stop stop-color="#FFE847" offset="6%"></stop>
            <stop stop-color="#FFC830" offset="16.8%"></stop>
            <stop stop-color="#FF980E" offset="30.4%"></stop>
            <stop stop-color="#FF8B16" offset="35.6%"></stop>
            <stop stop-color="#FF672A" offset="45.5%"></stop>
            <stop stop-color="#FF3647" offset="57%"></stop>
            <stop stop-color="#E31587" offset="73.7%"></stop>
        </radialGradient>
        <radialGradient cx="15.3712894%" cy="-42.6893496%" fx="15.3712894%" fy="-42.6893496%" r="238.697362%" gradientTransform="translate(0.153713,-0.426893),scale(0.981311,1.000000),translate(-0.153713,0.426893)" id="radialGradient-10">
            <stop stop-color="#FFF44F" offset="13.7%"></stop>
            <stop stop-color="#FF980E" offset="48%"></stop>
            <stop stop-color="#FF5634" offset="59.2%"></stop>
            <stop stop-color="#FF3647" offset="65.5%"></stop>
            <stop stop-color="#E31587" offset="90.4%"></stop>
        </radialGradient>
        <radialGradient cx="155.394022%" cy="-44.5826662%" fx="155.394022%" fy="-44.5826662%" r="312.821882%" gradientTransform="translate(1.553940,-0.445827),scale(0.895613,1.000000),translate(-1.553940,0.445827)" id="radialGradient-11">
            <stop stop-color="#FFF44F" offset="9.4%"></stop>
            <stop stop-color="#FFE141" offset="23.1%"></stop>
            <stop stop-color="#FFAF1E" offset="50.9%"></stop>
            <stop stop-color="#FF980E" offset="62.6%"></stop>
        </radialGradient>
        <linearGradient x1="86.3253568%" y1="15.072741%" x2="20.0369173%" y2="83.5367748%" id="linearGradient-12">
            <stop stop-color="#FFF44F" stop-opacity="0.8" offset="16.7%"></stop>
            <stop stop-color="#FFF44F" stop-opacity="0.634" offset="26.6%"></stop>
            <stop stop-color="#FFF44F" stop-opacity="0.217" offset="48.9%"></stop>
            <stop stop-color="#FFF44F" stop-opacity="0" offset="60%"></stop>
        </linearGradient>
    </defs>
    <g id="Icons" stroke="none" stroke-width="1" fill="none" fill-rule="evenodd">
        <g id="Browser-Icons" transform="translate(-10.000000, -10.000000)">
            <g id="Mozilla-Firefox" transform="translate(10.000000, 10.000000)">
                <rect id="BOX" fill-opacity="0.01" fill="#FFFFFF" opacity="0.01" x="0" y="0" width="24" height="24"></rect>
                <g id="Fox-New" fill-rule="nonzero">
                    <path d="M22.3616482,8.06894472 C21.8574472,6.85656281 20.8359397,5.54673367 20.0342111,5.13338693 C20.6055477,6.23919598 21.0017688,7.42657286 21.2084422,8.65342714 L21.2110553,8.67316583 C19.8999397,5.40321608 17.6765025,4.08550754 15.8598995,1.21443216 C15.7677588,1.06962814 15.6756181,0.923537688 15.5860905,0.77081407 C15.5347538,0.682653266 15.4939095,0.603658291 15.4583719,0.531256281 C15.3833568,0.385125628 15.3253869,0.231075377 15.2859095,0.071798995 C15.2859095,0.056 15.2740905,0.0441407035 15.2596181,0.0415276382 C15.2530251,0.040201005 15.2451457,0.040201005 15.2372261,0.0415276382 C15.2358995,0.0415276382 15.2332462,0.0441407035 15.2319598,0.0454673367 C15.2306332,0.0454673367 15.2266935,0.0494472362 15.2240402,0.0494472362 L15.2280201,0.0415678392 C12.3148141,1.74757789 11.326191,4.90564824 11.2354171,6.48534673 C10.0717186,6.56562814 8.95935678,6.99348744 8.04313568,7.7161809 C7.94701508,7.63457286 7.84828141,7.55955779 7.74428141,7.48972864 C7.47971859,6.56434171 7.46914573,5.58621106 7.71139698,4.65423116 C6.64116583,5.17286432 5.69069347,5.90745729 4.91931658,6.8118191 L4.91405025,6.8118191 C4.45463317,6.22862312 4.48619095,4.3080201 4.51256281,3.90649246 C4.37696482,3.96176884 4.24667337,4.03023116 4.12554774,4.1118392 C3.7200804,4.40144724 3.34094472,4.72659296 2.9921206,5.08333668 C2.59457286,5.48615075 2.23256281,5.92056281 1.90741709,6.3839598 L1.90741709,6.38528643 L1.90741709,6.38263317 C1.16237186,7.43971859 0.633165829,8.63368844 0.351437186,9.89744724 L0.335638191,9.97378894 C0.313246231,10.0764623 0.235577889,10.5872563 0.221105528,10.697809 C0.221105528,10.7070553 0.219778894,10.7149347 0.218452261,10.7228141 C0.11839196,11.2506935 0.0551959799,11.7851658 0.0315175879,12.3222513 L0.0315175879,12.3815075 C0.0367839196,18.7871357 5.23525628,23.976402 11.6408442,23.9698153 C17.2829749,23.9645427 22.1023116,19.9021106 23.0606231,14.3416281 C23.0803618,14.191598 23.0961608,14.0441407 23.1132864,13.8927437 C23.3529246,11.9207236 23.0935477,9.91714573 22.3616482,8.06894472 Z M8.99360804,17.1468543 C9.04755779,17.1780566 9.09889447,17.2109287 9.15421106,17.2406043 L9.16209045,17.2468543 C9.10548744,17.2155566 9.04888442,17.1827798 8.99360804,17.1468543 Z M21.2124221,8.69144623 L21.2124221,8.66524623 L21.2189221,8.69474623 L21.2124221,8.69144623 Z" id="path980" fill="url(#linearGradient-1)"></path>
                    <path d="M22.3616482,8.06894472 C21.8574472,6.85656281 20.8359397,5.54673367 20.0342111,5.13338693 C20.6055477,6.23919598 21.0017688,7.42657286 21.2084422,8.65342714 L21.2084422,8.6639598 L21.2110553,8.6758191 C22.1048844,11.233608 21.9758794,14.0388342 20.8503719,16.5044824 C19.520804,19.3571055 16.3034774,22.2808442 11.2669347,22.1386533 C5.82496482,21.9846432 1.0319196,17.9458894 0.135437186,12.656603 C-0.0278190955,11.8219899 0.135437186,11.3994372 0.217045226,10.7214874 C0.106452261,11.2480402 0.0432964824,11.7838392 0.0314371859,12.3222111 L0.0314371859,12.3814673 C0.0367035176,18.7870955 5.23517588,23.9763618 11.6407638,23.9697751 C17.2828945,23.9645025 22.1022312,19.9020704 23.0605427,14.3415879 C23.0802814,14.1915578 23.0960804,14.0441005 23.113206,13.8927035 C23.3529246,11.9207236 23.0935477,9.91714573 22.3616482,8.06894472 Z" id="path982" fill="url(#radialGradient-2)"></path>
                    <path d="M22.3616482,8.06894472 C21.8574472,6.85656281 20.8359397,5.54673367 20.0342111,5.13338693 C20.6055477,6.23919598 21.0017688,7.42657286 21.2084422,8.65342714 L21.2084422,8.6639598 L21.2110553,8.6758191 C22.1048844,11.233608 21.9758794,14.0388342 20.8503719,16.5044824 C19.520804,19.3571055 16.3034774,22.2808442 11.2669347,22.1386533 C5.82496482,21.9846432 1.0319196,17.9458894 0.135437186,12.656603 C-0.0278190955,11.8219899 0.135437186,11.3994372 0.217045226,10.7214874 C0.106452261,11.2480402 0.0432964824,11.7838392 0.0314371859,12.3222111 L0.0314371859,12.3814673 C0.0367035176,18.7870955 5.23517588,23.9763618 11.6407638,23.9697751 C17.2828945,23.9645025 22.1022312,19.9020704 23.0605427,14.3415879 C23.0802814,14.1915578 23.0960804,14.0441005 23.113206,13.8927035 C23.3529246,11.9207236 23.0935477,9.91714573 22.3616482,8.06894472 Z" id="path984" fill="url(#radialGradient-3)"></path>
                    <path d="M16.7248241,9.43139698 C16.7498291,9.44852261 16.7735477,9.46697487 16.7972261,9.4840603 C16.5063317,8.9680402 16.142995,8.49415075 15.7204422,8.07947739 C12.1148141,4.47388945 14.7752362,0.262713568 15.2241206,0.048120603 L15.2281005,0.0415678392 C12.3148945,1.74757789 11.3262714,4.90564824 11.2354975,6.48534673 C11.3710553,6.4761407 11.5053668,6.46428141 11.6435377,6.46428141 C13.7470955,6.4681809 15.6875176,7.60164824 16.7248241,9.43139698 Z" id="path986" fill="url(#radialGradient-4)"></path>
                    <path d="M11.6500905,10.1514774 C11.6303518,10.4397588 10.6114573,11.4349749 10.2547136,11.4349749 C6.95714573,11.4349749 6.42134673,13.4306734 6.42134673,13.4306734 C6.56747739,15.110392 7.73776884,16.4939095 9.15288442,17.2258492 C9.21736683,17.2587337 9.28321608,17.289005 9.34902513,17.3192764 C9.46223116,17.3693266 9.57547739,17.4167236 9.69001005,17.4588543 C10.1757588,17.6312764 10.6838995,17.7287236 11.198593,17.7497487 C16.9788945,18.0209447 18.0991357,10.8373467 13.9274774,8.7521608 C14.9121608,8.62444221 15.9086633,8.86669347 16.7235377,9.43139698 C15.6875176,7.60160804 13.7471357,6.4681809 11.6422513,6.46420101 C11.5040402,6.46420101 11.3697688,6.4760603 11.2341709,6.48526633 C10.0704724,6.56554774 8.95811055,6.99340704 8.04192965,7.7161005 C8.21833166,7.86613065 8.41837186,8.06625126 8.83835176,8.47959799 C9.62677387,9.25499497 11.6461106,10.0580101 11.6500905,10.1514774 Z" id="path988" fill="url(#radialGradient-5)"></path>
                    <path d="M11.6500905,10.1514774 C11.6303518,10.4397588 10.6114573,11.4349749 10.2547136,11.4349749 C6.95714573,11.4349749 6.42134673,13.4306734 6.42134673,13.4306734 C6.56747739,15.110392 7.73776884,16.4939095 9.15288442,17.2258492 C9.21736683,17.2587337 9.28321608,17.289005 9.34902513,17.3192764 C9.46223116,17.3693266 9.57547739,17.4167236 9.69001005,17.4588543 C10.1757588,17.6312764 10.6838995,17.7287236 11.198593,17.7497487 C16.9788945,18.0209447 18.0991357,10.8373467 13.9274774,8.7521608 C14.9121608,8.62444221 15.9086633,8.86669347 16.7235377,9.43139698 C15.6875176,7.60160804 13.7471357,6.4681809 11.6422513,6.46420101 C11.5040402,6.46420101 11.3697688,6.4760603 11.2341709,6.48526633 C10.0704724,6.56554774 8.95811055,6.99340704 8.04192965,7.7161005 C8.21833166,7.86613065 8.41837186,8.06625126 8.83835176,8.47959799 C9.62677387,9.25499497 11.6461106,10.0580101 11.6500905,10.1514774 Z" id="path990" fill="url(#radialGradient-6)"></path>
                    <path d="M7.50211055,7.32912563 C7.59553769,7.38834171 7.67324623,7.44100503 7.74166834,7.48840201 C7.47710553,6.56293467 7.46653266,5.58484422 7.70878392,4.65286432 C6.63855276,5.17153769 5.6880804,5.90609045 4.91670352,6.81045226 C4.97459296,6.80916583 6.65700503,6.77885427 7.50211055,7.32912563 Z" id="path992" fill="url(#radialGradient-7)"></path>
                    <path d="M0.136884422,12.656603 C1.0320402,17.9458894 5.82504523,21.9833166 11.2670151,22.1386533 C16.3035578,22.280804 19.5208442,19.3571055 20.8504523,16.5044422 C21.9759598,14.0388342 22.1049648,11.2348945 21.2111357,8.6758191 L21.2111357,8.66528643 C21.2111357,8.6560402 21.2098492,8.6521407 21.2111357,8.65475377 L21.2137487,8.67449246 C21.625809,11.3612462 20.2593769,13.9637789 18.1228543,15.7238191 L18.1162613,15.7382915 C13.953809,19.1280402 9.97037186,17.784 9.16474372,17.2350553 C9.1081407,17.2087638 9.05286432,17.1797789 8.99626131,17.150794 C6.57009045,15.9910352 5.56703518,13.7794975 5.78158794,11.8838593 C4.60474372,11.9009849 3.5278794,11.2243618 3.03425126,10.1554171 C4.32960804,9.36164824 5.94347739,9.29712563 7.29809045,9.98428141 C8.67111558,10.6082412 10.2350151,10.6688241 11.6527437,10.1554171 C11.6487638,10.0606633 9.62942714,9.25764824 8.84225126,8.48229146 C8.42231156,8.06765829 8.22219095,7.86882412 8.04578894,7.71879397 C7.94966834,7.63718593 7.85093467,7.56217085 7.74693467,7.49234171 C7.67851256,7.44494472 7.60080402,7.39493467 7.50737688,7.33306533 C6.66090452,6.78279397 4.97857286,6.81306533 4.92329648,6.81443216 L4.91803015,6.81443216 C4.45857286,6.23123618 4.49017085,4.31063317 4.51650251,3.90910553 C4.38094472,3.96438191 4.25061307,4.03284422 4.12948744,4.11445226 C3.7240603,4.4040603 3.34492462,4.72920603 2.9961005,5.08594975 C2.59722613,5.48743719 2.23388945,5.92184925 1.90741709,6.3839196 L1.90741709,6.38520603 L1.90741709,6.38259296 C1.16237186,7.43967839 0.633165829,8.63364824 0.351437186,9.89740704 C0.346170854,9.92112563 -0.0658492462,11.7219698 0.136884422,12.656603 Z" id="path994" fill="url(#radialGradient-8)"></path>
                    <path d="M15.720402,8.07943719 C16.1442814,8.49543719 16.5062915,8.96936683 16.7972261,9.48538693 C16.8603819,9.53411055 16.9209246,9.58150754 16.9709749,9.62753769 C19.6011256,12.0510553 18.2228744,15.4776281 18.120201,15.7224925 C20.2567236,13.9624523 21.6217889,11.3599598 21.2110955,8.67316583 C19.8986533,5.40192965 17.6752563,4.08422111 15.8586131,1.21314573 C15.7664724,1.06834171 15.6742915,0.922211055 15.5847638,0.769527638 C15.5334271,0.681326633 15.4926231,0.602331658 15.4570854,0.529929648 C15.3820302,0.383798995 15.3241005,0.229788945 15.2846231,0.0705125628 C15.2846231,0.0546733668 15.2727638,0.0428542714 15.2582915,0.040201005 C15.2517387,0.0389145729 15.2438593,0.0389145729 15.2358995,0.040201005 C15.2346131,0.040201005 15.2319598,0.0428140704 15.2306332,0.0441809045 C15.2293467,0.0441809045 15.2253668,0.048120603 15.2227538,0.048120603 C14.775196,0.262673367 12.1147739,4.47384925 15.720402,8.07943719 Z" id="path996" fill="url(#radialGradient-9)"></path>
                    <path d="M16.9696482,9.62753769 C16.9196382,9.58150754 16.8590553,9.53278392 16.7958995,9.48538693 C16.7721809,9.46826131 16.7485025,9.44984925 16.7234975,9.43272362 C15.9072965,8.8679799 14.910794,8.62576884 13.9274372,8.75344724 C18.0990955,10.8399598 16.9801407,18.0222714 11.1985528,17.7510754 C10.6838191,17.7300101 10.1757186,17.6312764 9.68996985,17.4601407 C9.57676382,17.4180101 9.46351759,17.3706131 9.34898492,17.320603 C9.28317588,17.2903317 9.21736683,17.2613467 9.15284422,17.2271357 L9.16072362,17.232402 C9.96635176,17.7826734 13.9485025,19.1267136 18.1122412,15.7356784 L18.1188342,15.721206 C18.2228744,15.4776683 19.5998392,12.0497286 16.9696482,9.62753769 Z" id="path998" fill="url(#radialGradient-10)"></path>
                    <path d="M6.42134673,13.4306734 C6.42134673,13.4306734 6.95714573,11.4349749 10.2547136,11.4349749 C10.6114573,11.4349749 11.6316382,10.4397588 11.6500905,10.1514774 C10.2323216,10.6648442 8.66842211,10.6043417 7.29543719,9.98034171 C5.94086432,9.29314573 4.32695477,9.35766834 3.03159799,10.1514774 C3.52522613,11.2203819 4.60205025,11.897005 5.77893467,11.8798794 C5.56434171,13.7768442 6.56615075,15.9870955 8.99360804,17.1468543 C9.04755779,17.1731457 9.09889447,17.2008442 9.15421106,17.2258492 C7.73776884,16.4939095 6.56743719,15.110392 6.42134673,13.4306734 Z" id="path1000" fill="url(#radialGradient-11)"></path>
                    <path d="M22.3616482,8.06894472 C21.8574472,6.85656281 20.8359397,5.54673367 20.0342111,5.13338693 C20.6055477,6.23919598 21.0017688,7.42657286 21.2084422,8.65342714 L21.2110553,8.67316583 C19.8999397,5.40321608 17.6765025,4.08550754 15.8598995,1.21443216 C15.7677588,1.06962814 15.6756181,0.923537688 15.5860905,0.77081407 C15.5347538,0.682653266 15.4939095,0.603658291 15.4583719,0.531256281 C15.3833568,0.385125628 15.3253869,0.231075377 15.2859095,0.071798995 C15.2859095,0.056 15.2740905,0.0441407035 15.2596181,0.0415276382 C15.2530251,0.040201005 15.2451457,0.040201005 15.2372261,0.0415276382 C15.2358995,0.0415276382 15.2332462,0.0441407035 15.2319598,0.0454673367 C15.2306332,0.0454673367 15.2266935,0.0494472362 15.2240402,0.0494472362 L15.2280201,0.0415678392 C12.3148141,1.74757789 11.326191,4.90564824 11.2354171,6.48534673 C11.3709749,6.4761407 11.5052864,6.46428141 11.6434573,6.46428141 C13.7483819,6.46826131 15.6874774,7.60168844 16.7261106,9.43147739 C15.9099095,8.86673367 14.913407,8.62452261 13.9300503,8.75224121 C18.1017085,10.8387136 16.9827538,18.0210653 11.2011658,17.7498291 C10.6864322,17.728804 10.1783317,17.6300704 9.69258291,17.4589347 C9.57937688,17.416804 9.46613065,17.369407 9.35159799,17.3193568 C9.28578894,17.2890854 9.2199799,17.2601407 9.15545729,17.2259296 L9.16333668,17.231196 C9.10673367,17.2048643 9.05145729,17.1759196 8.99485427,17.1469347 C9.04884422,17.1732261 9.1001809,17.2009246 9.15545729,17.2259296 C7.73901508,16.4939899 6.57001005,15.1104724 6.4239196,13.4307538 C6.4239196,13.4307538 6.95971859,11.4350553 10.2572864,11.4350553 C10.6140302,11.4350553 11.6342111,10.4398392 11.6526633,10.1515578 C11.6486834,10.056804 9.62934673,9.25374874 8.84217085,8.47839196 C8.42223116,8.06375879 8.22211055,7.86496482 8.04570854,7.71489447 C7.94958794,7.63328643 7.85085427,7.55827136 7.74685427,7.48848241 C7.48229146,6.56301508 7.47171859,5.58492462 7.71396985,4.65294472 C6.64373869,5.17161809 5.69330653,5.90617085 4.92188945,6.81053266 L4.91662312,6.81053266 C4.45720603,6.22737688 4.48876382,4.30677387 4.51513568,3.90520603 C4.37953769,3.96052261 4.24924623,4.02894472 4.1281206,4.11055276 C3.72265327,4.4001608 3.34351759,4.72530653 2.99469347,5.08209045 C2.59714573,5.48490452 2.23517588,5.91927638 1.90998995,6.38271357 L1.90998995,6.384 L1.90998995,6.38134673 C1.16494472,7.43843216 0.635738693,8.63240201 0.35401005,9.8961608 L0.338211055,9.97250251 C0.315819095,10.0751759 0.21841206,10.5925226 0.203939698,10.704402 C0.203939698,10.7122814 0.203939698,10.6951558 0.203939698,10.704402 C0.113085427,11.2401608 0.0564824121,11.7798995 0.0314773869,12.3222513 L0.0314773869,12.3815075 C0.0367437186,18.7871357 5.23521608,23.976402 11.640804,23.9698153 C17.2829347,23.9645427 22.1022714,19.9021106 23.0605829,14.3416281 C23.0803216,14.191598 23.0961206,14.0441407 23.1132462,13.8927437 C23.3529246,11.9207236 23.0935477,9.91714573 22.3616482,8.06894472 Z M21.2110955,8.6639196 L21.2175955,8.6934196 L21.2110955,8.6639196 Z" id="path1002" fill="url(#linearGradient-12)"></path>
                </g>
            </g>
        </g>
    </g>
</svg>