<?xml version="1.0" encoding="UTF-8"?>
<svg width="24px" height="24px" viewBox="0 0 24 24" version="1.1" xmlns="http://www.w3.org/2000/svg" xmlns:xlink="http://www.w3.org/1999/xlink">
    <title>Mozilla Firefox Inactive</title>
    <g id="Refactoring" stroke="none" stroke-width="1" fill="none" fill-rule="evenodd">
        <g id="Realtime-Browser-Testing-Refactored" transform="translate(-293.000000, -394.000000)">
            <g id="Mozilla-Firefox-Inactive" transform="translate(293.000000, 394.000000)">
                <rect id="BOX" fill-opacity="0.01" fill="#FFFFFF" opacity="0.01" x="0" y="0" width="24" height="24"></rect>
                <path d="M8.5012674,7.932 C9.39075886,7.28336842 10.4859058,6.90063158 11.6706327,6.90063158 C14.6463287,6.90063158 17.0580492,9.31578947 17.0580492,12.2943158 C17.0580492,15.2728421 14.6456978,17.688 11.6706327,17.688 C8.99774242,17.688 6.68064869,15.7566316 6.35576351,13.1835789 C6.22076267,12.1155789 6.98660852,11.3570526 10.3054841,11.3570526 C10.6675892,11.3570526 11.6901889,10.3566316 11.7078526,10.0642105 C9.60019941,8.86168421 6.86927135,8.20547368 7.57014016,4.42105263 C6.37216548,4.96484211 5.61325893,5.94063158 4.93573138,6.70105263 C4.41591509,5.68421053 4.41023749,3.88863158 4.41591509,3.78947368 C4.41023749,3.76610526 5.13367127e-13,6.08905263 5.13367127e-13,12.2955789 C5.13367127e-13,18.7964211 5.23096685,24 11.6706327,24 C18.1102986,24 23.3412655,18.7427368 23.3412655,12.2955789 C23.3412655,5.48905263 17.1722321,3.41178947 15.7711253,0 C12.8780701,1.69957895 12.0068731,3.40231579 11.9866861,6.82421053" id="Shape" fill="#999AA1"></path>
            </g>
        </g>
    </g>
</svg>