<svg width="31" height="32" viewBox="0 0 31 32" fill="none" xmlns="http://www.w3.org/2000/svg">
<path d="M25.8824 5.37207C26.6666 4.58477 27.0615 3.70018 26.9595 2.73145C26.727 0.533121 22.5628 -0.618109 13.4256 0.34011C4.85842 1.23943 0.455454 3.28839 0.688435 5.48777C0.797825 6.52067 1.44102 7.34215 2.48549 7.96536C0.860433 10.4424 -0.00361885 13.3412 1.13922e-05 16.3038C1.13922e-05 24.7279 6.83376 31.5553 15.2516 31.5553C23.6762 31.5553 30.5031 24.7279 30.5031 16.3038C30.5031 12.0154 28.7313 8.14312 25.8824 5.37207ZM15.2516 2.36699C17.5519 2.36699 19.7218 2.93024 21.6357 3.9216C20.2036 4.56847 17.3295 5.22481 13.9788 5.57613C10.7697 5.91271 7.93766 5.88431 6.3536 5.58664C8.85041 3.50346 11.9998 2.36386 15.2516 2.36699ZM15.2516 30.2405C7.56688 30.2405 1.3148 23.989 1.3148 16.3038C1.31167 13.5351 2.13799 10.829 3.68721 8.5344C6.2116 9.47894 10.0813 9.68984 14.3659 9.24018C18.7705 8.77895 22.5976 7.72502 24.8474 6.21143C27.518 8.75213 29.1883 12.3357 29.1883 16.3038C29.1883 23.989 22.9362 30.2405 15.2516 30.2405Z" fill="#707070"/>
<path d="M12.8481 17.5239C13.0916 17.7805 13.5786 17.3093 13.4855 17.0474C12.5399 14.4488 11.1162 13.1483 9.69207 13.1483C8.26842 13.1483 6.84476 14.4488 5.89969 17.0474C5.8066 17.3093 6.2936 17.781 6.53763 17.5239C7.45325 16.5572 8.54925 16.1733 9.69207 16.1733C10.8359 16.1733 11.9319 16.5572 12.8481 17.5239ZM20.8094 13.1483C19.3863 13.1483 17.9621 14.4488 17.017 17.0474C16.9229 17.3093 17.4109 17.781 17.6539 17.5239C18.5706 16.5572 19.6655 16.1733 20.8094 16.1733C21.9538 16.1733 23.0493 16.5572 23.9654 17.5239C24.2084 17.7805 24.6964 17.3093 24.6028 17.0474C23.6572 14.4488 22.2341 13.1483 20.8094 13.1483ZM21.6493 21.1674C17.5266 24.0426 12.9522 24.0252 8.85429 21.1674C8.36098 20.8224 7.91605 21.4183 8.25053 21.9684C9.50011 24.0268 12.0213 25.8575 15.252 25.8575C18.4822 25.8575 21.004 24.0273 22.2536 21.9684C22.5875 21.4183 22.1431 20.8224 21.6493 21.1674Z" fill="#707070"/>
</svg>
