<svg width="31" height="31" viewBox="0 0 31 31" fill="none" xmlns="http://www.w3.org/2000/svg">
<path d="M15.5 0C6.93987 0 0 6.93987 0 15.5C0 24.0601 6.93987 31 15.5 31C24.0601 31 31 24.0601 31 15.5C31 6.93987 24.0601 0 15.5 0ZM15.5 29.7083C7.66527 29.7083 1.29167 23.3347 1.29167 15.5C1.29167 7.66527 7.66527 1.29167 15.5 1.29167C23.3347 1.29167 29.7083 7.66527 29.7083 15.5C29.7083 23.3347 23.3347 29.7083 15.5 29.7083Z" fill="#707070"/>
<path d="M9.55833 14.2084C10.9851 14.2084 12.1417 13.0518 12.1417 11.625C12.1417 10.1983 10.9851 9.04169 9.55833 9.04169C8.1316 9.04169 6.975 10.1983 6.975 11.625C6.975 13.0518 8.1316 14.2084 9.55833 14.2084Z" fill="#707070"/>
<path d="M21.4417 14.2084C22.8684 14.2084 24.025 13.0518 24.025 11.625C24.025 10.1983 22.8684 9.04169 21.4417 9.04169C20.0149 9.04169 18.8583 10.1983 18.8583 11.625C18.8583 13.0518 20.0149 14.2084 21.4417 14.2084Z" fill="#707070"/>
<path d="M23.3425 17.5579C21.5528 17.2159 18.9085 16.864 15.5 16.864H15.4995C12.0921 16.864 9.44725 17.2159 7.65803 17.5579C6.96105 17.6917 6.71667 18.211 6.71667 18.6258C6.71667 22.3825 9.61568 26.1645 15.4995 26.1645H15.5C21.3843 26.1645 24.2838 22.383 24.2838 18.6258C24.2838 18.211 24.0389 17.6917 23.3425 17.5579ZM22.7204 19.5145C22.6925 19.7429 22.6491 20.0188 22.5835 20.3169C22.5096 20.6476 22.4481 20.8005 21.9294 20.7385C20.9369 20.6202 10.0626 20.6202 9.0706 20.7385C8.55187 20.8 8.48987 20.647 8.4165 20.3169C8.35799 20.0518 8.3123 19.784 8.27958 19.5145C8.23308 19.1306 8.2739 18.8589 8.94247 18.7467C10.0766 18.5566 12.4754 18.2234 15.499 18.2234C18.5235 18.2234 20.9219 18.5566 22.056 18.7467C22.7256 18.8589 22.7664 19.1301 22.7204 19.5145Z" fill="#707070"/>
</svg>
