<svg width="32" height="33" viewBox="0 0 32 33" fill="none" xmlns="http://www.w3.org/2000/svg">
<path d="M30.4894 10.6035C31.4876 9.12834 31.6933 7.67892 31.475 6.42619C31.2315 5.03041 30.4069 3.85499 29.1278 3.50578C28.0129 3.20075 26.9753 3.49736 25.9708 4.26467C25.4348 3.81096 24.8692 3.39334 24.2778 3.01457C23.6488 2.06109 22.8395 1.33007 21.7876 0.873044C20.7311 0.412342 19.6945 0.429172 18.8073 0.819401C17.8264 0.629019 16.8146 0.52594 15.7785 0.52594C14.7425 0.52594 13.7306 0.628494 12.7498 0.819927C11.8631 0.430223 10.826 0.412868 9.76941 0.87357C8.71705 1.33059 7.90714 2.06161 7.27762 3.0151C6.68618 3.39417 6.12046 3.81196 5.58417 4.26573C4.5802 3.49789 3.54152 3.20127 2.4271 3.5063C1.14913 3.85551 0.32344 5.03041 0.0799415 6.42671C-0.137262 7.67945 0.0683714 9.12887 1.06603 10.6041C0.360429 12.4211 -0.00106165 14.3536 2.34195e-06 16.3029C2.34195e-06 25.0173 7.06515 32.0809 15.7785 32.0809C24.4908 32.0809 31.5549 25.0173 31.5549 16.3029C31.5559 14.3535 31.1946 12.4209 30.4894 10.6035ZM15.7785 30.7666C7.80301 30.7666 1.31479 24.2784 1.31479 16.3029C1.31479 14.7136 1.5767 13.1842 2.05265 11.7527C3.97803 13.5313 8.24636 16.1988 8.41465 16.3039C8.5556 16.1509 13.4634 10.8633 14.5584 8.25585C15.7275 5.47007 15.2926 3.34064 14.2008 1.95801C14.1929 1.94854 14.1839 1.94118 14.1766 1.93171C14.7025 1.87334 15.2368 1.84073 15.7785 1.84073C16.3202 1.84073 16.8545 1.87334 17.3805 1.93171C17.3731 1.94118 17.3642 1.94854 17.3563 1.95801C16.2645 3.34064 15.8301 5.47007 16.9986 8.25585C18.0936 10.8633 23.0004 16.1509 23.1424 16.3039C23.3107 16.1988 27.5785 13.5318 29.5028 11.7527C29.9913 13.22 30.2403 14.7564 30.2402 16.3029C30.2402 24.2784 23.753 30.7666 15.7785 30.7666Z" fill="#707070"/>
<path d="M23.7604 18.3981C21.9381 18.0499 19.247 17.6923 15.777 17.6923C12.308 17.6923 9.61587 18.0499 7.79515 18.3981C7.08516 18.5348 6.83693 19.0629 6.83693 19.4852C6.83693 23.3091 9.78784 27.1593 15.7775 27.1593C21.7671 27.1593 24.7191 23.3096 24.7191 19.4852C24.7186 19.0629 24.4688 18.5348 23.7604 18.3981ZM23.1266 20.3903C23.0988 20.6222 23.0546 20.903 22.9878 21.207C22.9126 21.5431 22.85 21.6993 22.322 21.6362C21.3117 21.5157 10.2428 21.5157 9.23248 21.6362C8.70498 21.6987 8.64187 21.5426 8.56719 21.207C8.50798 20.9371 8.46147 20.6646 8.42782 20.3903C8.38049 19.999 8.42204 19.7224 9.1031 19.6088C10.2575 19.4147 12.6993 19.0755 15.777 19.0755C18.8546 19.0755 21.2965 19.4147 22.4508 19.6088C23.1324 19.7224 23.1734 19.9985 23.1266 20.3903Z" fill="#707070"/>
</svg>
