<svg width="32" height="27" viewBox="0 0 32 27" fill="none" xmlns="http://www.w3.org/2000/svg">
<path d="M28.3562 8.80548C25.5893 1.32118 16.6072 4.67915 15.7768 8.4163C14.634 4.43354 5.87276 1.46212 3.199 8.81074C0.221792 16.995 14.7381 24.3416 15.7768 25.5448C16.8144 24.5887 31.3318 16.8567 28.3562 8.80548Z" fill="#707070"/>
<path d="M30.504 6.67081C30.1787 5.69276 29.6438 4.7975 28.9368 4.04755C28.242 3.31508 27.398 2.74043 26.4618 2.36251C26.0094 2.17862 25.5394 2.04135 25.0592 1.95282C24.822 1.9102 24.5827 1.88001 24.3424 1.86237C24.1031 1.84204 23.8627 1.83852 23.6229 1.85185L24.274 2.15267C24.4875 2.2526 24.6995 2.34989 24.9067 2.45665C25.3221 2.66386 25.725 2.88422 26.1115 3.12456C26.8831 3.60367 27.5888 4.15588 28.2015 4.80592C28.8158 5.45384 29.3312 6.19591 29.7609 7.01424C29.9765 7.42182 30.1674 7.85097 30.3452 8.29432C30.434 8.51467 30.5192 8.74134 30.6018 8.97117L30.8506 9.66696C30.8784 9.4182 30.8869 9.16628 30.8848 8.91542C30.8729 8.15219 30.7445 7.39526 30.504 6.67081ZM31.5432 5.25347C31.5144 4.87534 31.4444 4.50147 31.3344 4.13853C31.1135 3.40918 30.7275 2.74056 30.2063 2.18455C29.6852 1.62855 29.0429 1.20013 28.3293 0.932548C27.9896 0.806953 27.637 0.719123 27.278 0.670643C27.1006 0.646127 26.9218 0.632777 26.7426 0.630673C26.5634 0.627489 26.3842 0.638568 26.2067 0.663806C26.365 0.755315 26.5202 0.83841 26.6732 0.921504C26.8273 1.00565 26.9762 1.08822 27.1239 1.17394C27.42 1.34066 27.7045 1.51263 27.978 1.69513C28.5218 2.06116 29.0183 2.46191 29.4532 2.92314C29.8937 3.39431 30.2753 3.91721 30.5897 4.48038C30.7543 4.7691 30.9058 5.07045 31.052 5.38705C31.1256 5.54535 31.1945 5.70576 31.2666 5.87142C31.3381 6.03393 31.4075 6.2017 31.4859 6.37262C31.5227 6.18645 31.5416 6.00132 31.5485 5.81515C31.5583 5.62799 31.5565 5.44041 31.5432 5.25347ZM1.20996 8.29432C1.3872 7.84992 1.57916 7.42182 1.79373 7.01424C2.2234 6.19486 2.73985 5.45332 3.3536 4.80592C3.96576 4.15641 4.67154 3.60367 5.44358 3.12351C5.83013 2.88475 6.23246 2.66386 6.64846 2.45665C6.85619 2.34989 7.06814 2.2526 7.28166 2.15267L7.93274 1.85185C7.69281 1.8387 7.45227 1.84186 7.21277 1.86132C6.97295 1.87762 6.73471 1.91128 6.49647 1.95282C6.01999 2.04013 5.54982 2.17686 5.09333 2.36251C4.15706 2.74023 3.31298 3.3149 2.61837 4.04755C1.91093 4.79723 1.37602 5.69258 1.05114 6.67081C0.810067 7.39511 0.68165 8.15214 0.670375 8.91542C0.668271 9.16681 0.676686 9.4182 0.705611 9.66696L0.953318 8.97012C1.03589 8.74134 1.12108 8.51362 1.20996 8.29432ZM2.10139 2.92261C2.53685 2.46139 3.03279 2.06064 3.57658 1.6946C3.84953 1.51158 4.13406 1.34013 4.43067 1.17342C4.57845 1.08769 4.72834 1.00512 4.88138 0.920978C5.03442 0.837884 5.18957 0.753737 5.34787 0.662228C5.17034 0.637615 4.99116 0.626889 4.81196 0.630147C4.63282 0.631747 4.45397 0.645099 4.27658 0.670117C3.91744 0.718659 3.56472 0.806487 3.22475 0.932023C2.52035 1.19615 1.88543 1.61738 1.36827 2.16372C0.837736 2.72397 0.445017 3.40011 0.221243 4.13853C0.110614 4.50097 0.0404152 4.87454 0.0119286 5.25242C-0.00147882 5.4397 -0.00358635 5.62762 0.00561758 5.81515C0.0129804 6.00027 0.0313875 6.18645 0.0687275 6.37262C0.147089 6.2017 0.217036 6.03393 0.288034 5.87142C0.359559 5.70576 0.429506 5.54535 0.503134 5.38705C0.648812 5.07045 0.800276 4.7691 0.964888 4.47932C1.27904 3.91616 1.66069 3.39339 2.10139 2.92261ZM3.03384 18.2441L2.96021 18.3256C3.23474 19.115 3.63338 19.7677 4.0762 20.3704C4.51114 20.9826 5.00707 21.5248 5.54035 22.027C6.07626 22.5261 6.64688 22.9868 7.27956 23.3776C7.90487 23.7783 8.57331 24.1296 9.36429 24.3453L9.43791 24.2643C8.40186 23.2256 7.32636 22.2316 6.27295 21.2129C5.1922 20.2242 4.133 19.2129 3.03384 18.2441ZM0.846031 19.8056L0.772403 19.8865C1.13739 20.7617 1.62649 21.4985 2.15924 22.1869C2.68463 22.8827 3.27103 23.5117 3.89424 24.0986C4.5206 24.6818 5.18168 25.2277 5.90481 25.7037C6.62058 26.1886 7.37895 26.6256 8.26039 26.9259L8.33402 26.8449C7.11757 25.6364 5.86169 24.4715 4.62684 23.2845C3.36517 22.1264 2.12558 20.9436 0.846031 19.8056ZM26.0148 22.0276C26.5481 21.5253 27.044 20.9831 27.4789 20.3709C27.9217 19.7682 28.3204 19.1156 28.5944 18.3262L28.5208 18.2446C27.4221 19.2134 26.3624 20.2247 25.2822 21.214C24.2282 22.2327 23.1527 23.2266 22.1167 24.2653L22.1908 24.3463C22.9818 24.1307 23.6497 23.7794 24.275 23.3786C24.9082 22.9873 25.4789 22.5266 26.0148 22.0276ZM26.9283 23.2845C25.6934 24.4715 24.4386 25.6364 23.2216 26.8449L23.2942 26.9259C24.1762 26.6256 24.9345 26.1886 25.6498 25.7037C26.3724 25.2283 27.0335 24.6824 27.6609 24.0986C28.2841 23.5117 28.8705 22.8827 29.3954 22.1869C29.9281 21.4985 30.4172 20.7617 30.7822 19.8865L30.7086 19.8056C29.4295 20.9436 28.19 22.1264 26.9283 23.2845Z" fill="#707070"/>
</svg>
