<?xml version="1.0" encoding="UTF-8"?>
<svg width="24px" height="24px" viewBox="0 0 24 24" version="1.1" xmlns="http://www.w3.org/2000/svg" xmlns:xlink="http://www.w3.org/1999/xlink">
    <title>IE</title>
    <defs>
        <radialGradient cx="49.3170616%" cy="41.7018491%" fx="49.3170616%" fy="41.7018491%" r="51.8337143%" gradientTransform="translate(0.493171,0.417018),scale(1.000000,0.978261),rotate(52.023293),translate(-0.493171,-0.417018)" id="radialGradient-1">
            <stop stop-color="#89EAFE" offset="0%"></stop>
            <stop stop-color="#86E8FD" offset="26.24%"></stop>
            <stop stop-color="#7DDFF9" offset="43.57%"></stop>
            <stop stop-color="#6ED2F2" offset="58.32%"></stop>
            <stop stop-color="#59BEE9" offset="71.63%"></stop>
            <stop stop-color="#3EA5DD" offset="83.97%"></stop>
            <stop stop-color="#1C87CF" offset="95.44%"></stop>
            <stop stop-color="#0D79C8" offset="100%"></stop>
        </radialGradient>
        <linearGradient x1="54.0348014%" y1="3.81513158%" x2="43.59286%" y2="105.226316%" id="linearGradient-2">
            <stop stop-color="#FFB700" offset="0%"></stop>
            <stop stop-color="#FFB700" stop-opacity="0" offset="85.99%"></stop>
        </linearGradient>
        <linearGradient x1="1.96573209%" y1="58.4981163%" x2="68.9498442%" y2="45.1113062%" id="linearGradient-3">
            <stop stop-color="#FFB700" offset="0%"></stop>
            <stop stop-color="#FFB700" stop-opacity="0" offset="100%"></stop>
        </linearGradient>
    </defs>
    <g id="Icons" stroke="none" stroke-width="1" fill="none" fill-rule="evenodd">
        <g id="Browser-Icons" transform="translate(-214.000000, -10.000000)">
            <g id="IE" transform="translate(214.000000, 10.000000)">
                <rect id="BOX" fill-opacity="0.01" fill="#FFFFFF" opacity="0.01" x="0" y="0" width="24" height="24"></rect>
                <g transform="translate(1.000000, 1.000000)" fill-rule="nonzero">
                    <g id="E" transform="translate(2.252743, 1.439252)">
                        <path d="M5.54381076,8.3764486 L13.7851756,8.3764486 C13.6118623,6.07121048 11.9298632,4.44249221 9.61170256,4.44249221 C7.54071681,4.44249221 5.81123982,6.14870974 5.54381076,8.3764486 Z M5.4444179,8.41910326 C5.69556531,6.11842121 7.47461525,4.34654206 9.61170256,4.34654206 C11.9968626,4.34654206 13.7270624,6.03902883 13.8824235,8.42123242 L13.8857604,8.47239875 L5.43860005,8.47239875 L5.4444179,8.41910326 Z M5.53049376,11.1302181 C5.5750188,12.1397589 5.95931574,13.1698299 6.60604489,13.936617 C7.34534556,14.8131605 8.37130312,15.2967808 9.60116618,15.2656842 C11.4265888,15.2199492 12.7228713,14.4504635 13.3522067,13.1242332 L18.7549643,13.0971963 L18.7325792,13.1612999 C17.3744871,17.0504304 13.7649438,19.698567 9.6586347,19.698567 C4.33876924,19.698567 0.0281592848,15.2921657 0.0281592848,9.854081 C0.0281592848,4.41599631 4.33876924,0.00959501558 9.6586347,0.00959501558 C14.9785002,0.00959501558 19.2891101,4.41599631 19.2891101,9.854081 C19.2891101,10.2573157 19.263735,10.6581912 19.2136896,11.0879143 L5.53049376,11.1302181 Z M9.60347664,15.3616053 C8.34498912,15.3934257 7.29229401,14.8972017 6.5349547,13.9992709 C5.8633498,13.2029901 5.46939677,12.1306189 5.43476879,11.0838644 L19.1253403,11.0342679 C19.1717482,10.6241142 19.1952458,10.2400964 19.1952458,9.854081 C19.1952458,4.46898812 14.9266603,0.105545171 9.6586347,0.105545171 C4.39060906,0.105545171 0.122023568,4.46898812 0.122023568,9.854081 C0.122023568,15.2391739 4.39060906,19.6026168 9.6586347,19.6026168 C13.7023438,19.6026168 17.2595681,17.0093532 18.6215469,13.1931464 L13.4237034,13.1931464 C12.7735361,14.5367325 11.450138,15.3153382 9.60347664,15.3616053 Z" id="Shape" fill="#2064A9"></path>
                        <path d="M5.49106054,8.42442368 C5.73510768,6.18878505 7.46221048,4.39451713 9.61170256,4.39451713 C12.0240146,4.39451713 13.6854124,6.12161994 13.8355953,8.42442368 L5.49106054,8.42442368 Z M13.3944332,13.1451713 C12.7843153,14.4309034 11.5171475,15.2656698 9.60231613,15.3136449 C6.94595693,15.38081 5.54737911,13.0684112 5.48167412,11.082243 L13.3662739,11.082243 L13.8262089,11.082243 L19.1670866,11.082243 C19.2140187,10.6792523 19.242178,10.2762617 19.242178,9.854081 C19.242178,4.44249221 14.9525803,0.0575700935 9.6586347,0.0575700935 C4.36468915,0.0575700935 0.0750914262,4.44249221 0.0750914262,9.854081 C0.0750914262,15.2656698 4.36468915,19.6505919 9.6586347,19.6505919 C13.8262089,19.6505919 17.3648923,16.9352025 18.6883787,13.1451713 L13.3944332,13.1451713 Z" id="Shape" fill="url(#radialGradient-1)"></path>
                    </g>
                    <g id="Halo">
                        <path d="M20.4154815,4.67277259 C20.3403901,4.97021807 20.2652987,5.22928349 20.2183665,5.44996885 C20.1808208,5.62267913 20.1620479,6.13121495 20.1620479,6.13121495 C20.1620479,6.13121495 20.5187322,5.90093458 20.6032101,5.78579439 C20.6783015,5.68024922 20.7815522,5.22928349 20.8754165,4.77831776 L20.4154815,4.67277259 Z" id="Shape" fill-opacity="0.95" fill="url(#linearGradient-2)"></path>
                        <path d="M20.8941894,4.79750779 C20.9598944,4.50006231 21.0162129,4.19302181 21.0443722,3.98193146 C21.1663958,3.2047352 21.4198293,-0.940311526 16.0038602,0.239875389 C8.73876473,1.81345794 4.72137343,7.6376324 4.0830963,8.44361371 C2.87224705,9.9788162 -0.732141406,15.9085358 0.21588785,19.5546417 C0.769687119,21.6847352 2.98488419,21.6751402 4.59934986,21.3393146 L4.48671272,20.7540187 C1.74587566,21.2049844 1.33287282,19.074891 1.70832995,17.4149533 C2.16826493,15.3424299 3.66070703,11.9361994 8.48533117,7.13869159 C12.7655425,2.87850467 17.3085738,0.49894081 19.6739537,1.67912773 C20.9317351,2.30280374 20.6876879,3.65570093 20.4154815,4.69196262 L20.8941894,4.79750779 Z" id="Shape" fill-opacity="0.95" fill="#FFB700"></path>
                        <path d="M16.0038602,0.239875389 C8.73876473,1.81345794 4.72137343,7.6376324 4.0830963,8.44361371 C3.32279561,9.40311526 1.63323852,12.0897196 0.703982121,14.8530841 C0.647663551,15.0737695 0.581958553,15.2944548 0.506867127,15.4863551 C0.506867127,15.4863551 0.506867127,15.4863551 0.506867127,15.4863551 C3.49175132,7.66641745 10.9070297,2.13009346 16.2948395,0.182305296 C16.2009752,0.201495327 16.0977245,0.220685358 16.0038602,0.239875389 Z" id="Shape" fill="#FFFFA6"></path>
                        <path d="M4.59934986,21.3297196 C5.48167412,21.1378193 6.20442909,20.8499688 6.36399837,20.7636137 C6.51418123,20.6772586 7.03043478,20.3894081 7.4997562,20.1015576 L7.08675335,19.8616822 C6.86147907,19.9480374 6.59865908,20.0535826 6.3076798,20.1783178 C5.62247054,20.4661682 5.00296627,20.6484735 4.48671272,20.7252336 L4.59934986,21.3297196 Z" id="Shape" fill-opacity="0.95" fill="url(#linearGradient-3)"></path>
                    </g>
                </g>
            </g>
        </g>
    </g>
</svg>