<?xml version="1.0" encoding="UTF-8"?>
<svg width="24px" height="24px" viewBox="0 0 24 24" version="1.1" xmlns="http://www.w3.org/2000/svg" xmlns:xlink="http://www.w3.org/1999/xlink">
    <title>IE Inactive</title>
    <g id="Icons" stroke="none" stroke-width="1" fill="none" fill-rule="evenodd">
        <g id="Browser-Icons-Inactive" transform="translate(-214.000000, -10.000000)">
            <g id="IE-Inactive" transform="translate(214.000000, 10.000000)">
                <rect id="BOX" fill-opacity="0.01" fill="#FFFFFF" opacity="0.01" x="0" y="0" width="24" height="24"></rect>
                <path d="M17.6041115,13.8377869 L22.9424218,13.8377869 C22.9835362,13.4675766 23,13.0892701 23,12.7025507 C23,10.8883167 22.5129598,9.18666109 21.6629008,7.72124347 C22.5421333,5.38491576 22.5107887,3.40201789 21.3337145,2.21693788 C20.2143994,1.10250767 17.2111956,1.28342901 13.8162067,2.7868401 C13.5650879,2.76784336 13.3115266,2.75807361 13.0555681,2.75807361 C8.39575814,2.75807361 4.48609323,5.96476865 3.4054953,10.2855321 C4.86724926,8.41403651 6.40508064,7.05712647 8.45944245,6.06897934 C8.27264117,6.24402074 7.18272579,7.32755864 6.99940724,7.51101288 C1.5819439,12.9268027 -0.126451075,20.0014603 1.71175496,21.8400282 C3.10905569,23.2370575 5.64132121,23.0011361 8.55003881,21.5766067 C9.90256151,22.2654194 11.4334726,22.6537671 13.0554325,22.6537671 C17.4230997,22.6537671 21.1245242,19.84234 22.4653322,15.9268856 L17.0859528,15.9268856 C16.3457132,17.2923894 14.8980258,18.2218275 13.2365347,18.2218275 C11.5750436,18.2218275 10.1272658,17.2923894 9.38707138,15.9268856 C9.0580207,15.3100343 8.86886744,14.6027223 8.86886744,13.8540698 L8.86886744,13.8377869 L17.6041115,13.8377869 Z M8.87687321,11.2138847 C9.00026156,9.01772579 10.8263006,7.26563831 13.0554325,7.26563831 C15.2844738,7.26563831 17.1105581,9.01768056 17.2339012,11.2138847 L8.87687321,11.2138847 Z M21.2850014,3.32128174 C22.0431975,4.08748361 22.024246,5.49717745 21.3757334,7.25681839 C20.2645598,5.56276144 18.6501987,4.22783334 16.7443281,3.46561174 C18.7821356,2.5918069 20.4398274,2.47606247 21.2850014,3.32128174 Z M3.11412149,21.4913475 C2.1465994,20.523554 2.4382446,18.4922145 3.68465693,16.0448915 C4.46053809,18.2220989 5.9723168,20.0498115 7.92129193,21.2272476 C5.76317173,22.2069366 3.99674624,22.3732486 3.11412149,21.4913475 Z" id="Shape" fill="#B5B8BD" fill-rule="nonzero"></path>
            </g>
        </g>
    </g>
</svg>