<?xml version="1.0" encoding="UTF-8"?>
<svg width="7px" height="12px" viewBox="0 0 7 12" version="1.1" xmlns="http://www.w3.org/2000/svg" xmlns:xlink="http://www.w3.org/1999/xlink">
    <title>Shape</title>
    <g id="Refactoring" stroke="none" stroke-width="1" fill="none" fill-rule="evenodd">
        <g id="Realtime-App-Testing-Android-Refactored" transform="translate(-858.000000, -324.000000)" fill="#B5B8BD" fill-rule="nonzero">
            <path d="M863.822494,324 C864.385647,324 864.808013,324.469295 864.808013,324.985519 L864.808013,334.324482 C864.808013,334.887635 864.338718,335.31 863.822494,335.31 L858.988759,335.31 C858.425606,335.31 858.003241,334.840706 858.003241,334.324482 L858.003241,324.985519 C857.956311,324.469295 858.425606,324 858.988759,324 L863.822494,324 Z M863.822494,324.985519 L858.988759,324.985519 L858.988759,334.324482 L863.822494,334.324482 L863.822494,324.985519 Z M861.509831,331.563663 C861.860864,331.563663 862.145433,331.848232 862.145433,332.199265 C862.145433,332.550298 861.860864,332.834867 861.509831,332.834867 C861.158798,332.834867 860.874229,332.550298 860.874229,332.199265 C860.874229,331.848232 861.158798,331.563663 861.509831,331.563663 Z" id="Shape"></path>
        </g>
    </g>
</svg>