<svg width="32" height="33" viewBox="0 0 32 33" fill="none" xmlns="http://www.w3.org/2000/svg">
<path d="M15.7775 0.52594C7.0641 0.52594 0 7.59004 0 16.3034C0 25.0168 7.0641 32.0809 15.7775 32.0809C24.4908 32.0809 31.5549 25.0168 31.5549 16.3034C31.5549 7.59004 24.4908 0.52594 15.7775 0.52594ZM15.7775 30.7661C7.80249 30.7661 1.31479 24.2784 1.31479 16.3034C1.31479 8.32843 7.80249 1.84073 15.7775 1.84073C23.7525 1.84073 30.2402 8.32843 30.2402 16.3034C30.2402 24.2784 23.7525 30.7661 15.7775 30.7661Z" fill="#707070"/>
<path d="M9.72943 17.075C11.1817 17.075 12.359 15.8976 12.359 14.4454C12.359 12.9931 11.1817 11.8158 9.72943 11.8158C8.27716 11.8158 7.09985 12.9931 7.09985 14.4454C7.09985 15.8976 8.27716 17.075 9.72943 17.075Z" fill="#707070"/>
<path d="M21.8255 17.075C23.2778 17.075 24.4551 15.8976 24.4551 14.4454C24.4551 12.9931 23.2778 11.8158 21.8255 11.8158C20.3733 11.8158 19.196 12.9931 19.196 14.4454C19.196 15.8976 20.3733 17.075 21.8255 17.075Z" fill="#707070"/>
</svg>
