<svg width="32" height="33" viewBox="0 0 32 33" fill="none" xmlns="http://www.w3.org/2000/svg">
<path d="M15.7775 0.52594C7.0641 0.52594 0 7.59004 0 16.3034C0 25.0168 7.0641 32.0809 15.7775 32.0809C24.4898 32.0809 31.5549 25.0168 31.5549 16.3034C31.5549 7.59004 24.4898 0.52594 15.7775 0.52594ZM15.7775 30.7661C7.80249 30.7661 1.31479 24.2784 1.31479 16.3034C1.31479 8.32843 7.80249 1.84073 15.7775 1.84073C23.7519 1.84073 30.2402 8.32843 30.2402 16.3034C30.2402 24.2784 23.7519 30.7661 15.7775 30.7661Z" fill="#707070"/>
<path d="M9.72943 16.6147C11.1817 16.6147 12.359 15.4374 12.359 13.9852C12.359 12.5329 11.1817 11.3556 9.72943 11.3556C8.27716 11.3556 7.09985 12.5329 7.09985 13.9852C7.09985 15.4374 8.27716 16.6147 9.72943 16.6147Z" fill="#707070"/>
<path d="M21.8245 16.6147C23.2768 16.6147 24.4541 15.4374 24.4541 13.9852C24.4541 12.5329 23.2768 11.3556 21.8245 11.3556C20.3722 11.3556 19.1949 12.5329 19.1949 13.9852C19.1949 15.4374 20.3722 16.6147 21.8245 16.6147Z" fill="#707070"/>
<path d="M19.3911 22.6144H12.1629C11.3719 22.6144 11.3719 24.718 12.1629 24.718H19.3911C20.182 24.718 20.182 22.6144 19.3911 22.6144Z" fill="#707070"/>
</svg>
