<?xml version="1.0" encoding="UTF-8"?>
<svg width="24px" height="24px" viewBox="0 0 24 24" version="1.1" xmlns="http://www.w3.org/2000/svg" xmlns:xlink="http://www.w3.org/1999/xlink">
    <title>Safari</title>
    <defs>
        <linearGradient x1="0%" y1="0%" x2="0%" y2="100%" id="linearGradient-1">
            <stop stop-color="#19D7FF" offset="0%"></stop>
            <stop stop-color="#1E64F0" offset="100%"></stop>
        </linearGradient>
    </defs>
    <g id="Icons" stroke="none" stroke-width="1" fill="none" fill-rule="evenodd">
        <g id="Browser-Icons" transform="translate(-146.000000, -10.000000)">
            <g id="Safari" transform="translate(146.000000, 10.000000)">
                <rect id="BOX" fill-opacity="0.01" fill="#FFFFFF" opacity="0.01" x="0" y="0" width="24" height="24"></rect>
                <g transform="translate(1.000000, 1.000000)" fill-rule="nonzero">
                    <g id="Group">
                        <ellipse id="Oval" fill="url(#linearGradient-1)" cx="10.9755999" cy="11" rx="10.9312361" ry="10.9525862"></ellipse>
                        <polygon id="Shape" fill="#FF0000" points="18.4420246 3.47009698 10.0483969 10.070986 12.0004033 12.026805"></polygon>
                        <polygon id="Shape" fill="#FFFFFF" points="3.46037508 18.4810075 10.0483969 10.070986 12.0004033 12.026805"></polygon>
                    </g>
                    <path d="M10.9755999,1.12311422 L10.9755999,2.73666487 M10.9755999,19.2144397 L10.9755999,20.8279903 M12.6836056,1.26980065 L12.4054446,2.85890356 M9.54575519,19.0824219 L9.26759427,20.6813039 M14.3428111,1.71963901 L13.7913692,3.23539871 M8.16471063,18.7157058 L7.6132688,20.2314655 M9.26759427,1.26980065 L9.54575519,2.85890356 M12.4054446,19.0824219 L12.6836056,20.6813039 M7.60838879,1.71963901 L8.15983061,3.23539871 M13.7816092,18.7157058 L14.333051,20.2314655 M6.05654366,2.44329203 L6.86662634,3.84170259 M15.0894535,18.1094019 L15.8946562,19.5078125 M4.65597903,3.42120151 L5.69054245,4.658257 M16.2606574,17.2830684 L17.2952208,18.5201239 M3.43597499,4.63380927 L4.67061908,5.67039332 M17.2708207,16.2709321 L18.5054648,17.3075162 M2.45021174,6.05177802 L3.84589635,6.85855334 M18.1004235,15.0974407 L19.4961081,15.9042161 M1.73772938,7.60665409 L3.25053438,8.15917295 M18.7006655,13.787042 L20.2134705,14.3395609 M1.29364791,9.25443157 L2.87965316,9.53313578 M19.0764267,12.4081897 L20.6624319,12.6868939 M1.14236741,10.9755523 L2.75277274,10.9755523 M19.1984271,10.9755523 L20.8088324,10.9755523 M1.2887679,12.6868939 L2.87477314,12.4081897 M19.0764267,9.54291487 L20.6624319,9.26421067 M1.7426094,14.34934 L3.2554144,13.7968211 M18.7006655,8.1640625 L20.2134705,7.61154364 M2.45997177,15.9042161 L3.85565638,15.0974407 M18.1004235,6.85855334 L19.4961081,6.05177802 M3.44085501,17.3075162 L4.67549909,16.2709321 M17.2708207,5.68017241 L18.5054648,4.64358836 M4.646219,18.529903 L5.68078242,17.2928475 M16.2508974,4.6680361 L17.2854608,3.4309806 M6.05654366,19.5078125 L6.86662634,18.1094019 M15.0894535,3.84170259 L15.8946562,2.44329203 M10.1167171,1.1622306 L10.2267171,2.04234914 M11.7564025,19.9185345 L11.8664025,20.798653 M8.4282315,1.46538254 L8.65759226,2.31616379 M13.2936076,19.6447198 L13.5229683,20.4955011 M6.81782617,2.05212823 L7.1887074,2.84912446 M14.7527324,19.1117592 L15.1284936,19.9087554 M5.33430127,2.90290948 L5.83694293,3.6265625 M16.1142569,18.324542 L16.6168986,19.048195 M4.02157693,4.0079472 L4.64133898,4.62891972 M17.3098609,17.3221848 L17.9296229,17.9431573 M2.9235733,5.328125 L3.64581569,5.83174838 M18.3151442,16.1291352 L19.0276265,16.6229795 M2.06469046,6.80965787 L2.86013309,7.18126347 M19.0910667,14.760062 L19.8865094,15.1365571 M1.47908853,8.42320851 L2.32821133,8.65301724 M19.6229885,13.2980873 L20.4721113,13.527896 M1.18140754,10.1198815 L2.05981045,10.2298815 M19.9011494,11.7627694 L20.7795523,11.8727694 M1.19116757,11.8727694 L2.06957048,11.7627694 M19.9109095,10.2298815 L20.7893124,10.1198815 M1.47908853,13.527896 L2.32821133,13.2980873 M19.6229885,8.65301724 L20.4721113,8.42320851 M2.06469046,15.1414467 L2.86013309,14.7698411 M19.0910667,7.18615302 L19.8865094,6.81454741 M2.9235733,16.6229795 L3.64581569,16.1193561 M18.3151442,5.82196929 L19.0276265,5.328125 M5.33430127,19.048195 L5.83694293,18.324542 M16.1093769,3.6265625 L16.6168986,2.90290948 M6.81782617,19.8989763 L7.19358742,19.1019801 M14.7576124,2.83934537 L15.1333737,2.04234914 M8.4282315,20.485722 L8.65759226,19.6349407 M13.2936076,2.3063847 L13.5229683,1.45560345 M10.1167171,20.7839844 L10.2267171,19.9038658 M11.7564025,2.0276805 L11.8664025,1.14756196" id="Shape" stroke="#FFFFFF" stroke-width="0.2" fill="#000000"></path>
                </g>
            </g>
        </g>
    </g>
</svg>