<svg width="32" height="33" viewBox="0 0 32 33" fill="none" xmlns="http://www.w3.org/2000/svg">
<path d="M30.5021 10.6356C30.4999 10.5652 30.4988 10.4947 30.4989 10.4242V10.147C30.4989 9.93142 30.4752 9.88829 30.3606 9.82939C30.2785 9.78732 30.1944 9.7484 30.1092 9.70895C27.6127 4.28939 22.1358 0.52594 15.7775 0.52594C9.41915 0.52594 3.94279 4.28939 1.44522 9.70895C1.36055 9.74787 1.2764 9.78679 1.19436 9.82939C1.07918 9.88776 1.05657 9.93089 1.05657 10.147V10.4242C1.05657 10.5178 1.05499 10.5825 1.05341 10.6367C0.356018 12.4445 -0.00112038 14.3657 2.64025e-06 16.3034C2.64025e-06 25.0168 7.0641 32.0809 15.7775 32.0809C24.4908 32.0809 31.5549 25.0168 31.5549 16.3034C31.5559 14.3654 31.1989 12.444 30.5021 10.6356ZM15.7775 1.84073C21.1828 1.84073 25.9024 4.82372 28.3842 9.22827C26.4152 8.89957 23.7593 8.92008 22.3535 9.04209C20.5465 9.20145 19.0366 9.60798 17.8012 10.2407C16.6452 10.8181 14.9102 10.8181 13.7532 10.2407C12.5178 9.60798 11.0079 9.20092 9.20195 9.04209C7.79618 8.92008 5.14083 8.89957 3.17127 9.22827C5.65254 4.82372 10.3721 1.84073 15.7775 1.84073ZM15.7775 30.7661C7.80249 30.7661 1.31479 24.2784 1.31479 16.3034C1.31479 14.7041 1.57985 13.1653 2.06159 11.7253C2.37504 12.2859 2.58646 13.068 2.72372 14.0109C3.03822 16.2266 4.12581 17.6156 5.89078 18.2787C7.53753 18.8931 9.35386 18.8734 10.9869 18.2235C11.8762 17.868 12.6572 17.3074 13.2773 16.3949C14.3643 14.7977 14.0388 13.799 14.6005 12.4258C15.0906 11.2283 16.4627 11.2283 16.9529 12.4258C17.514 13.799 17.1885 14.7977 18.2761 16.3949C18.8962 17.3069 19.6771 17.868 20.5659 18.2235C22.1992 18.8734 24.0157 18.8931 25.6626 18.2787C27.4276 17.615 28.5151 16.2266 28.8296 14.0109C28.9674 13.068 29.1783 12.2854 29.4923 11.7253C29.987 13.201 30.2392 14.747 30.2391 16.3034C30.2402 24.2784 23.7525 30.7661 15.7775 30.7661Z" fill="#707070"/>
<path d="M22.3956 21.7093C18.131 24.6839 13.3998 24.6665 9.15936 21.7093C8.64922 21.3527 8.18905 21.9691 8.5351 22.5392C9.82727 24.6676 12.4358 26.5619 15.7775 26.5619C19.1192 26.5619 21.7277 24.6665 23.0199 22.5392C23.3664 21.9691 22.9063 21.3543 22.3956 21.7093Z" fill="#707070"/>
</svg>
