<svg width="32" height="33" viewBox="0 0 32 33" fill="none" xmlns="http://www.w3.org/2000/svg">
<path d="M15.7775 0.52594C7.0641 0.52594 0 7.59004 0 16.3034C0 25.0168 7.0641 32.0809 15.7775 32.0809C24.4908 32.0809 31.5549 25.0168 31.5549 16.3034C31.5549 7.59004 24.4908 0.52594 15.7775 0.52594ZM25.2981 5.42958C23.7999 4.83117 22.164 4.66447 20.5759 4.94837C20.2062 5.01936 20.475 6.14219 20.78 6.08224C22.972 5.68885 25.2271 6.29261 26.9279 7.72993C27.0137 7.80461 27.1746 7.73782 27.3303 7.61318C28.2506 8.83463 28.9713 10.1944 29.4655 11.6417C28.2575 9.70632 26.1154 8.41468 23.6662 8.41468C21.2822 8.41468 19.1849 9.63638 17.9611 11.4871C16.5474 10.8728 14.9081 10.9291 13.5954 11.4908C12.3722 9.63796 10.2748 8.41468 7.88874 8.41468C5.43955 8.41468 3.29749 9.70685 2.08999 11.6422C2.59129 10.1742 3.32576 8.79657 4.26518 7.56217C4.40717 7.66577 4.54812 7.71941 4.62595 7.65105C5.46679 6.94135 6.45375 6.42575 7.51657 6.14095C8.57939 5.85616 9.69192 5.80918 10.775 6.00335C11.08 6.06278 11.3493 4.94048 10.9795 4.86948C9.44915 4.59643 7.87341 4.74179 6.4188 5.29021C8.94372 3.14132 12.2107 1.84073 15.7775 1.84073C19.421 1.84073 22.7522 3.19812 25.2981 5.42958ZM28.9254 15.2516C28.9254 18.1552 26.5698 20.5107 23.6662 20.5107C20.7626 20.5107 18.407 18.1552 18.407 15.2516C18.407 12.3464 20.7626 9.99242 23.6662 9.99242C26.5698 9.99242 28.9254 12.3464 28.9254 15.2516ZM13.1484 15.2516C13.1484 18.1562 10.7928 20.5107 7.88874 20.5107C4.98463 20.5107 2.62958 18.1562 2.62958 15.2516C2.62958 12.3464 4.9841 9.99242 7.88874 9.99242C10.7934 9.99242 13.1484 12.3464 13.1484 15.2516ZM15.7775 30.7661C8.11856 30.7661 1.83492 24.7817 1.34845 17.2437C2.20201 20.0474 4.80634 22.0885 7.88874 22.0885C11.6648 22.0885 14.7256 19.0277 14.7256 15.2516C14.7256 14.5805 14.6252 13.9336 14.4448 13.3209C15.2495 13.0916 16.3065 13.0927 17.1101 13.3215C16.9245 13.9481 16.8299 14.5981 16.8293 15.2516C16.8293 19.0277 19.8901 22.0885 23.6662 22.0885C26.7486 22.0885 29.3529 20.0474 30.2065 17.2437C29.72 24.7817 23.4364 30.7661 15.7775 30.7661Z" fill="#707070"/>
<path d="M9.46646 18.1441C10.6283 18.1441 11.5701 16.9668 11.5701 15.5145C11.5701 14.0623 10.6283 12.8849 9.46646 12.8849C8.30463 12.8849 7.36279 14.0623 7.36279 15.5145C7.36279 16.9668 8.30463 18.1441 9.46646 18.1441Z" fill="#707070"/>
<path d="M22.0885 18.1441C23.2503 18.1441 24.1921 16.9668 24.1921 15.5145C24.1921 14.0623 23.2503 12.8849 22.0885 12.8849C20.9266 12.8849 19.9848 14.0623 19.9848 15.5145C19.9848 16.9668 20.9266 18.1441 22.0885 18.1441Z" fill="#707070"/>
<path d="M20.7232 23.2192C19.0282 24.4125 16.3302 25.2356 13.5392 24.4988C12.7919 24.3005 12.206 26.2396 13.0038 26.462C16.0368 27.2772 19.3406 26.6876 21.9076 24.8769C22.5413 24.4204 21.3533 22.7591 20.7232 23.2192Z" fill="#707070"/>
</svg>
