<svg width="32" height="33" viewBox="0 0 32 33" fill="none" xmlns="http://www.w3.org/2000/svg">
<path d="M15.7775 0.52594C7.0641 0.52594 0 7.59004 0 16.3034C0 25.0168 7.0641 32.0809 15.7775 32.0809C24.4908 32.0809 31.5549 25.0168 31.5549 16.3034C31.5549 7.59004 24.4908 0.52594 15.7775 0.52594ZM15.7775 30.7661C7.80249 30.7661 1.31479 24.2784 1.31479 16.3034C1.31479 8.32843 7.80249 1.84073 15.7775 1.84073C23.7519 1.84073 30.2402 8.32843 30.2402 16.3034C30.2402 24.2784 23.7519 30.7661 15.7775 30.7661Z" fill="#707070"/>
<path d="M9.72945 15.037C11.1817 15.037 12.359 13.8597 12.359 12.4074C12.359 10.9551 11.1817 9.77783 9.72945 9.77783C8.27717 9.77783 7.09987 10.9551 7.09987 12.4074C7.09987 13.8597 8.27717 15.037 9.72945 15.037Z" fill="#707070"/>
<path d="M21.8255 15.037C23.2778 15.037 24.4551 13.8597 24.4551 12.4074C24.4551 10.9551 23.2778 9.77783 21.8255 9.77783C20.3733 9.77783 19.196 10.9551 19.196 12.4074C19.196 13.8597 20.3733 15.037 21.8255 15.037Z" fill="#707070"/>
<path d="M24.25 18.9435C21.9738 22.1552 19.2795 22.9636 15.7769 22.9636C12.2749 22.9636 9.5806 22.1558 7.30444 18.9435C6.98731 18.4965 6.15268 18.7778 6.33728 19.4268C7.53269 23.6368 11.5964 26.0886 15.7775 26.0886C19.9585 26.0886 24.0228 23.6368 25.2182 19.4268C25.4017 18.7773 24.5671 18.4965 24.25 18.9435Z" fill="#707070"/>
</svg>
