<svg width="13" height="13" viewBox="0 0 13 13" fill="none" xmlns="http://www.w3.org/2000/svg">
<path d="M0.106582 5.09783C-0.100619 4.90461 0.0119332 4.55532 0.29219 4.52181L4.2633 4.04704C4.37752 4.03339 4.47673 3.96082 4.52491 3.8555L6.19987 0.193828C6.31808 -0.0645872 6.6824 -0.0646204 6.80061 0.193795L8.47556 3.85555C8.52374 3.96087 8.62231 4.0334 8.73653 4.04705L12.7079 4.52181C12.9881 4.55532 13.1006 4.90463 12.8934 5.09785L9.95763 7.83566C9.87319 7.91441 9.83549 8.03178 9.85791 8.14554L10.6371 12.1007C10.6921 12.3798 10.3975 12.5956 10.1513 12.4566L6.66183 10.4871C6.56147 10.4304 6.4392 10.4304 6.33884 10.487L2.84907 12.4567C2.6028 12.5957 2.3079 12.3798 2.3629 12.1007L3.14228 8.1455C3.1647 8.03174 3.12704 7.91444 3.0426 7.8357L0.106582 5.09783Z" fill="#11BAC6"/>
</svg>
