<?xml version="1.0" encoding="UTF-8"?>
<svg width="24px" height="24px" viewBox="0 0 24 24" version="1.1" xmlns="http://www.w3.org/2000/svg" xmlns:xlink="http://www.w3.org/1999/xlink">
    <title>Yandex</title>
    <g id="Icons" stroke="none" stroke-width="1" fill="none" fill-rule="evenodd">
        <g id="Browser-Icons" transform="translate(-181.000000, -9.000000)">
            <g id="Yandex" transform="translate(181.000000, 9.000000)">
                <rect id="BOX" fill-opacity="0.01" fill="#FFFFFF" opacity="0.01" x="0" y="0" width="24" height="24"></rect>
                <circle fill="#FF0000" cx="12" cy="12" r="11"></circle>
                <path d="M15.9834107,5.39217992 C15.7357181,6.11461661 15.477705,6.83705331 15.2300124,7.55949 C14.4766141,9.73712061 13.7128953,11.9147512 12.9594971,14.0923818 C12.9285355,14.1955871 12.8872534,14.2987923 12.8562918,14.391677 C12.8562918,14.4019976 12.8459713,14.4123181 12.8459713,14.4226386 C12.8562918,14.3194334 12.8150097,14.4845617 12.8459713,14.4226386 C12.8150097,14.8457801 12.8459713,15.2895626 12.8459713,15.7127041 L12.8459713,18.6540535 C12.8459713,18.8191819 12.701484,18.9636693 12.5363556,18.9636693 L11.1946874,18.9636693 C11.1018027,18.9636693 11.0295591,18.9327077 10.9779564,18.8811051 C10.9779564,18.8811051 10.9779564,18.8811051 10.9676359,18.8811051 C10.9676359,18.8811051 10.9676359,18.8811051 10.9676359,18.8707845 C10.9160333,18.8191819 10.8850717,18.7469382 10.8850717,18.6540535 L10.8850717,15.5888578 C10.8850717,15.1966779 10.9057128,14.7941775 10.8850717,14.4019976 C10.8850717,14.391677 10.8850717,14.3813565 10.8850717,14.371036 C10.9057128,14.4432797 10.8850717,14.2781513 10.8850717,14.371036 C10.8850717,14.371036 10.8850717,14.3607155 10.8850717,14.3503949 C10.8644307,14.2678307 10.8231486,14.1955871 10.792187,14.1130229 C10.4825713,13.2770604 10.162635,12.4204569 9.85301929,11.5741739 C9.23378784,9.93321057 8.62487691,8.2819267 8.01596598,6.64096335 C7.94372232,6.44487339 8.12949175,6.24878343 8.31526119,6.24878343 L9.7704551,6.24878343 C9.91494244,6.24878343 10.0284682,6.34166815 10.0697503,6.47583496 C10.6786612,8.18904198 11.2875722,9.902249 11.8964831,11.6051355 C12.6189198,9.47910751 13.3413565,7.35307952 14.0637932,5.21673101 C14.0947547,5.09288472 14.2082805,5 14.3527678,5 L15.6841155,5 C15.8802054,5 16.0556543,5.19608996 15.9834107,5.39217992 Z" id="Shape" fill="#FFFFFF" fill-rule="nonzero"></path>
            </g>
        </g>
    </g>
</svg>